<svg xmlns="http://www.w3.org/2000/svg" viewBox="0 0 336.31524 284.99434"><defs><style>.cls-1{fill:#fff;}</style></defs><title>Asset 2</title><g id="Layer_2" data-name="Layer 2"><g id="Layer_2-2" data-name="Layer 2"><path class="cls-1" d="M220.626,253.46389a53.005,53.005,0,0,0-14.11127-15.15527,16.71281,16.71281,0,0,0-7.10175-2.85395c-4.20324-.68353-7.41076.31592-8.971,4.6247-.04816,8.18591,3.39764,15.15521,7.63952,21.847a2.38069,2.38069,0,0,1,1.21033.86817,15.71235,15.71235,0,0,0,5.26178,5.25567,20.273,20.273,0,0,1-.70209-2.27575c-.69067-3.66364-2.09851-7.27314-.9848-11.09015.18115-.621-.26178-1.66663.74609-1.76978,1.088-.11145,1.073.99317,1.37989,1.70093,2.15362,4.96655,4.18444,10.02521,7.227,14.5119,1.68737,2.48822,3.0075,5.52216,6.25927,6.61456,4.4878.39258,7.13111-3.36352,7.04871-7.44964C225.41609,262.754,223.45283,257.97433,220.626,253.46389Z"/><path class="cls-1" d="M87.26753,21.88454c-2.64356-1.02539-3.64527-3.90307-5.97669-5.28143a2.16875,2.16875,0,0,0,.23468,1.5495A24.87246,24.87246,0,0,1,83.195,31.08108c-.08124.54406.157,1.38922-.71222,1.56823-.85871.17682-1.07764-.57031-1.2406-1.13812a61.73649,61.73649,0,0,0-2.975-7.09021c-2.35071-5.50311-5.24945-10.74634-10.02783-14.64447-6.15271-.15033-9.0882,3.4834-7.86957,9.65588,1.6806,8.51239,6.1438,15.433,12.30548,21.33667,3.012,2.88575,5.92023,6.01508,9.89014,7.61469,3.2417,1.30627,6.49035,2.811,10.11774.608,2.0133-1.22278,1.80645-3.32153,2.77063-4.92749a17.3454,17.3454,0,0,0-1.29841-7.52881A70.35656,70.35656,0,0,0,87.26753,21.88454Z"/><path class="cls-1" d="M217.66316,233.93667c-4.51734-5.31421-9.53919-10.511-16.8191-11.48615-3.8576-.51678-5.74017-1.88959-7.38885-5.2763-2.33746-4.80182-5.48944-9.20795-8.28363-13.789-.27783-.4555-1.15356-.73852-.42548-1.51806,2.70856-2.90021,4.05768-6.69061,6.48359-9.8q11.06844-14.18683,21.06756-29.15356a3.853,3.853,0,0,0,.58923-3.20227c-1.43707-7.45691-4.80932-14.01886-8.71905-20.42121-5.48181-8.97644-10.79974-18.03424-20.39209-23.43884a7.27435,7.27435,0,0,1-2.36926-2.88013,2.22466,2.22466,0,0,1,.45929-3.25885c.942-.83948,2.59478-1.62359,1.67047-3.47186,1.69781-.84485,1.4906-3.57837,2.86352-3.95319,3.32459-.90759,2.08606-2.49353,1.59162-4.61993-1.49341-6.42261-1.31293-13.4447,4.92242-16.669a24.75326,24.75326,0,0,0,5.20557-3.03607c-2.20728-1.64368-4.62641-1.82953-7.17255-1.8692-1.2232-.019-2.755,1.54059-3.57672-.0296-.6756-1.291.46112-2.75666.93628-4.10474a17.59214,17.59214,0,0,1,.91058-1.83118c-3.98517-1.04974-7.10095.52454-10.301,2.90631.11035-2.64874,2.52807-4.01043,2.44519-6.32531-5.2406-.1153-9.94721,1.89618-14.47547,4.01623-5.33337,2.49707-9.37146,6.57831-10.3161,12.6742-.64636,4.17138-.72876,8.45892.837,12.54736a14.65337,14.65337,0,0,1,.44665,7.21252c-.16449,1.34174-.73742,1.99268-2.29388,1.88306a28.95541,28.95541,0,0,0-11.16211,1.46045c-3.50738,1.163-7.08691,1.9986-10.64368,2.9469-3.43.91455-4.293.5965-6.056-2.36151-4.11694-6.90711-8.47943-13.666-12.36291-20.71619-.995-1.80633-1.71881-3.30755-.99939-5.47931a11.50978,11.50978,0,0,0,.044-4.84082c-.50311-4.0249-3.26525-6.20056-7.38836-5.92169a1.9804,1.9804,0,0,1-2.22077-1.151c-1.40313-3.41644-3.72589-6.28687-5.54608-9.45392a1.56167,1.56167,0,0,1,.147-2.10278c4.52258-5.66052,4.93042-11.904,2.629-18.58942a80.41807,80.41807,0,0,0-16.087-27.79382c-2.62006-2.93219-5.79712-5.33344-8.096-8.5697-.36743-.5174-1.08569-.96338-1.62879-.56031-.53869.39991-.24816,1.15052.06318,1.71833.17315.31573.374.61737.57586.9162,2.56086,3.79132,5.27332,7.49188,7.62152,11.41015,1.10859,1.84992,2.95,3.4588,2.81916,5.93109a70.35656,70.35656,0,0,1,6.88781,14.65094,17.34518,17.34518,0,0,1,1.29841,7.52869c.02423,1.07758.11035,2.15784.06286,3.23218-.35205,7.96313-6.42016,11.36749-13.47705,7.73639-6.53021-3.36-10.89563-8.88178-15.0553-14.60083-4.7359-6.5113-8.5863-13.47675-9.95453-21.5578-.16473-.97315-.29773-1.95563-.37219-2.93927a7.35715,7.35715,0,0,1,3.91773-7.44629c2.73046-1.49976,5.37609-.73963,7.66406,1.288,4.77838,3.89813,7.67712,9.14136,10.02783,14.64447a61.73649,61.73649,0,0,1,2.975,7.09021c.163.56781.38189,1.31494,1.2406,1.13812.8692-.179.631-1.02417.71222-1.56823a24.87246,24.87246,0,0,0-1.66944-12.92847,2.16875,2.16875,0,0,1-.23468-1.5495,14.14,14.14,0,0,1-1.43207-2.17371C76.76917,8.57918,72.48762,3.78194,66.43916.9537,62.052-1.09776,57.45643.31154,54.35627,3.7355c-3.84247,4.24371-3.85919,9.25616-2.886,14.28851,2.897,14.97973,10.70648,27.34808,21.35821,37.96081,4.40692,4.39075,9.70007,7.66523,16.38507,6.96277a2.77508,2.77508,0,0,1,3.18262,1.67877c2.191,3.8996,4.2323,7.91565,6.79254,11.564a7.7152,7.7152,0,0,1,1.02863,6.91437,81.074,81.074,0,0,0-1.743,8.72967c-1.64788,10.41169-3.57031,20.78247-3.6278,31.39441a4.66854,4.66854,0,0,0,3.445,5.019,36.26081,36.26081,0,0,0,10.30005,2.07679c7.047.5028,14.10675.30749,21.15876.50323,1.30578.03632,2.698.014,3.17895,1.47547.85877,2.60931,2.66144,4.659,3.959,7.0028a4.9788,4.9788,0,0,1,.65533,4.038c-.96057,3.63568-1.70129,7.32928-2.53125,10.99939-.40521,1.79168-.39191,3.12133-3.066,4.006a51.45164,51.45164,0,0,0-17.69971,10.591c-5.4414,4.80127-5.48712,10.40936-.18982,15.226a19.74,19.74,0,0,0,10.944,4.67272c11.03016,1.5376,21.734-.44171,32.37677-3.09375,2.07953-.51818,4.34394-2.4151,6.06366-1.535,1.64844.84363,2.40766,3.4209,3.55054,5.24078.04071.06482.00519.17743.00519.47443-21.11182,4.22382-42.32745,6.11945-64.03015,2.49677,8.81823,5.30328,13.15436,11.95813,7.38037,22.23016-3.21308-12.03613-8.80615-19.13873-14.77014-18.98547,5.25409,9.46649,4.57568,18.18609-1.923,22.58349-.32342-5.92908-1.308-11.55347-5.46362-16.09393-4.08783-4.46649-10.48883-7.39124-15.04614-6.671,6.20093,4.57318,10.51636,10.12573,8.59,18.19806-.92578,3.87939-3.04815,7.36474-7.45141,8.83459,0-2.08874.01672-3.89514-.00287-5.70111-.09448-8.71747-4.36609-15.36481-11.19214-20.11316-9.79614-6.81451-22.12817-4.32635-29.05579,5.27661-2.436,3.37677-4.10479,8.06812-3.80993,10.71375.17462-.03412.42926-.01013.50934-.11676.37744-.50287.6795-1.0622,1.058-1.56415,3.36731-4.46576,7.38556-7.91223,13.32312-8.17035,6.32941-.27515,11.81982,4.21472,12.38708,10.057.63752,6.56469-3.09234,11.51379-9.77807,12.60193a34.03081,34.03081,0,0,1-22.0351-3.68708c-6.25122-3.38818-8.06848-8.00122-5.65612-14.90881a43.81886,43.81886,0,0,1,6.47967-11.386c5.92523-8.03625,14.06238-13.82757,21.58307-20.19263,4.7771-4.043,10.22528-7.27453,15.64166-10.46087,3.871-2.27716,7.77539-4.49762,11.66461-6.74384.54724-.3161,1.30652-.66992,1.0091-1.37549-.34961-.82928-1.01709-.25921-1.57483-.03247-1.332.54163-2.71912.96174-4.01477,1.57636-12.4704,5.91528-24.53125,12.4649-35.76465,20.60651C24.77613,186.347,14.53327,193.7145,6.46992,203.666a39.14332,39.14332,0,0,0-4.20837,6.25378c-4.46283,8.40332-2.27924,15.46051,6.184,19.95355,9.91992,5.26636,20.78094,5.84766,31.647,5.84992a171.66073,171.66073,0,0,0,38.61432-4.876c14.33679-3.30542,28.56586-6.87964,42.48089-11.88818,13.79828-4.96649,27.69495-9.65467,41.32844-15.0788,1.37438-.54681,1.96032-.882,1.37158-2.58911a7.172,7.172,0,0,1,2.93194-8.50684c.56848-.39947,1.2699-1.55279,2.16138-.09423.63135,1.03295,1.08588,1.76886-.26215,2.53607-1.89886,1.08069-2.3974,2.82336-2.06964,4.85907.34668,2.15313,5.92151,6.97094,8.06073,6.98187a.98183.98183,0,0,0,.66938-.30518c1.01153-1.19006,1.59252-.51342,2.15844.44312,3.45569,5.84033,6.90277,11.68591,10.3974,17.50293.531.88391.307,1.22235-.39306,1.9555a16.81528,16.81528,0,0,0-4.71766,15.3299c1.50245,8.17889,5.53754,15.31525,9.77338,22.26776,4.54358,7.45776,10.91425,13.41467,17.30292,19.29212.15375.14141.46881.355.70221-.18305.08081-.699-.53144-1.16309-.942-1.73138q-5.84536-8.0907-10.8565-16.72187c-.52985-.91021-1.32837-1.79132-.72309-2.9906-4.24188-6.69183-7.68768-13.66113-7.63959-21.84832a9.55141,9.55141,0,0,1,.23468-4.54065c1.47028-6.268,6.2674-8.70179,12.10529-5.96546,5.891,2.76117,10.38721,7.06708,14.19275,12.417a93.577,93.577,0,0,1,9.11829,14.89252,29.63418,29.63418,0,0,1,3.13262,13.56555,6.87816,6.87816,0,0,1-4.55853,6.45215,5.39654,5.39654,0,0,1-6.188-1.15723c-3.25177-1.0924-4.5719-4.12634-6.25927-6.61456-3.04261-4.48669-5.07343-9.54535-7.227-14.5119-.30689-.70776-.29194-1.81238-1.37989-1.70093-1.00787.10315-.56494,1.14874-.74609,1.76978-1.11371,3.817.29413,7.42651.9848,11.09015a20.273,20.273,0,0,0,.70209,2.27575,72.70352,72.70352,0,0,0,5.70691,8.78516,24.76317,24.76317,0,0,0,11.79956,7.88611c4.596,1.53387,11.64123-3.64624,12.44647-9.37354a31.99351,31.99351,0,0,0-1.56067-14.36938A78.73318,78.73318,0,0,0,217.66316,233.93667ZM114.07972,112.24483c-.53613.05-1.36847.67377-1.41144-.43444-.21685-5.58783-2.46521-10.86408-2.13379-16.61445,3.09949,5.06549,6.19892,10.13105,9.584,15.6634C117.46235,110.28823,116.01686,112.06417,114.07972,112.24483Zm64.25665,78.715c-.50445.272-.90161-.50946-1.17138-.94318-1.6919-2.72-3.31812-5.48089-5.02448-8.19165-.88873-1.41192-.67541-2.09973.85578-3.08294a29.47038,29.47038,0,0,0,8.97046-9.37342c4.06219-6.51251.2373-12.37823-7.29035-13.95361-1.16431-.24365-1.291,1.20605-2.57123.93207,2.09638-4.91162,5.148-9.10907,7.54493-13.66577.44213-.84064.84021-1.78577,2.096-.5979,5.35138,5.06176,10.7472,10.05969,14.4588,16.55944a3.82311,3.82311,0,0,1,.41578,3.4632,125.71792,125.71792,0,0,1-12.21692,25.90912C182.93165,190.44857,180.31056,189.89516,178.33637,190.9598Z"/><path class="cls-1" d="M271.59565,126.59945c-.16821-.06281-.353-.08-.52417-.13642-10.40381-3.43084-21.06354-3.68933-31.85266-2.68121-12.59314,1.1767-18.28522,12.92322-14.23218,23.42792,1.677,4.34656,7.51337,9.82434,12.5343,9.11853a9.62646,9.62646,0,0,0,7.17957-2.66614,12.03686,12.03686,0,0,0,3.72876-12.44318c-1.69861-5.24255-8.98053-7.08563-12.54553-3.14648a4.90623,4.90623,0,0,0-1.04608,5.69519c.98,2.122,2.89514,1.73883,4.69024,1.68884.72223-.02008,1.52252-1.21136,2.12049-.09759a2.54815,2.54815,0,0,1-.69226,2.96374c-2.17054,2.456-7.33191,2.2417-9.7804-.39154a8.619,8.619,0,0,1-1.88678-8.84424,11.04309,11.04309,0,0,1,7.88141-7.71051c8.13171-2.21832,15.45984,4.1341,17.47571,11.0354a15.5557,15.5557,0,0,1-1.24225,11.2652c-.22724.48682-.67487.99213-.19055,1.45728.35949.34527.75171.0039,1.12445-.29566,2.57592-2.07037,5.18792-4.09594,7.77691-6.1502,4.74793-3.7674,9.34583-7.69562,12.603-12.90155C277.48274,131.36739,276.44331,128.40957,271.59565,126.59945Zm-3.11474,9.72015a11.39148,11.39148,0,0,1-1.39667,1.95435c-1.44629,1.55414-2.95355,3.05163-4.97919,5.1278.70184-6.49017-1.73334-10.72778-6.861-14.10534,4.03107-.25672,7.5531-.28278,10.95685.79413C269.51234,131.13814,270.25239,133.34,268.48091,136.3196Z"/><path class="cls-1" d="M205.856,138.95821c.37311.667.92761,1.42389,1.64923,1.01953.97668-.54724.07287-1.187-.31311-1.67016a6.45775,6.45775,0,0,1-1.53449-3.9339c-.02325-1.0874-.68048-2.64276.78144-3.07422a3.09468,3.09468,0,0,1,3.75323,1.83868c.35974.72364.741,1.43659,1.1037,2.15876a9.86423,9.86423,0,0,0,5.94757,5.08776c1.7215.58307,2.34229.3379,2.43305-1.61547.24475-5.26764,2.232-9.73285,6.62805-12.92047a1.39723,1.39723,0,0,0,.60284-1.5077c-9.32617.11438-18.48334,1.129-27.83386,2.0478,1.353,2.85314,3.0802,5.027,4.054,7.6416A37.28305,37.28305,0,0,0,205.856,138.95821Z"/><path class="cls-1" d="M201.11469,184.82894q.18036.16278.34821.33838c4.70416-1.74719,8.90344-4.42951,13.17114-6.99255C209.74647,179.64107,203.78657,178.95229,201.11469,184.82894Z"/><path class="cls-1" d="M201.46289,185.16732c-.08286.2512-.24062.44776-.48955.24992-.06621-.05263.08964-.38378.14245-.58767Q201.29448,184.99142,201.46289,185.16732Z"/><path class="cls-1" d="M311.11146,182.35982h-.05353c.00849.01148.01862.01892.0271.03052Z"/><path class="cls-1" d="M318.15229,186.72841c.00806-.00012.01459.00251.02259.00245.00372-.01032.00122-.02063.00555-.031Z"/><path class="cls-1" d="M321.69563,188.77328c-1.39771-.5755-2.03491-2.05188-3.52075-2.04242-.24787.68921.90045,1.371.17779,1.92382-.80914.619-1.18066-.43432-1.74017-.77722-1.28882-.78985-2.6-1.54315-3.88727-2.33545-2.06336-1.26995-4.4375-1.82-6.60657-3.18219h4.93927c-1.69269-2.28314-4.35187-2.22491-6.748-2.5675-1.96534-.281-3.337-1.0199-4.06983-2.86292q-.21789-.01995-.43609-.03765l-1.79566.07818a2.28654,2.28654,0,0,0,.128.51978c-.83856.7771-1.14306.424-1.16479-.52735-1.16571.23792-2.19348-3.46454-3.49756-.13379-.00372.00946-.57709-.08233-.68018-.2511-1.32049-2.163-3.26019-1.03057-5.73687-1.19134,3.496,2.47662,7.60077,2.25055,10.35669,5.01489-1.34552.72925-2.50794-.95733-3.45038.42328.57068.5763,1.23315.42359,1.8399.499.10224.24347.13672.6139.31824.71137,5.70367,3.06183,8.72766,8.35663,10.47717,14.09711,3.16138,10.373,1.4632,20.46466-4.06976,29.7-2.79157,4.65954-6.78119,8.4115-12.60089,9.00494-4.23511.43189-8.30524-.25091-11.39075-3.66894-1.65753-.2627-.78363-2.215-1.98053-2.83564a2.85077,2.85077,0,0,1,3.1247,1.70581,5.72233,5.72233,0,0,1,1.59454.25153,12.898,12.898,0,0,0,11.03125.033c4.93414-2.0437,7.92908-5.89392,9.8089-10.4931,1.8883-4.62006,2.94372-9.54688,1.05383-14.8349-.38324,2.51306-.72412,4.74817-1.065,6.98327-.9057-2.12439-.6026-4.42218-1.84119-6.33917-1.60882-7.0863-5.9823-12.13489-12.13635-15.58752a44.31523,44.31523,0,0,0-19.36816-5.73395,42.67357,42.67357,0,0,0-15.65992,1.57733c-7.61908,2.44989-14.46753,6.38294-19.13952,13.41693-3.356,5.05268-6.33576,10.15955-7.95282,16.07721-.54187,1.98291-.33319,4.15753-1.48981,5.97846-.402.63293-.79584,1.24359-1.67889,1.08264-.853-.15546-.74982-.88178-.84388-1.48688a21.46094,21.46094,0,0,1,2.31055-13.49487c3.88818-7.39783,8.332-14.43567,15.505-19.21656,2.71081-1.80682,5.49188-3.5086,8.20361-5.23443-.45148-1.2334-1.82867-.09577-2.18341-.97754.17175-.89673,1.46472-.59326,1.28479-1.88825-1.89264.64588-3.7486,1.27918-5.60449,1.91254l-.35743-.75067c5.01014-2.8374,9.581-6.3429,15.432-7.81873,5.90991-1.49072,11.83985-.11914,17.81708-.99218-1.95392-.62928-3.9079-1.25855-5.60645-1.80555.35224-3.33978,3.55-2.56323,5.33411-3.99383H262.7754c-.9165,1.85059-2.55945.47717-3.81732.91034,1.00238-1.2475,2.61285-1.1145,3.82849-1.82807q2.16769-.18841,4.335-.379c4.74866.20331,9.5329-.30927,14.21753,1.1065-1.50519-2.13794-3.57532-2.09655-5.63519-2.1524-3.42536-.09271-6.85791-1.19763-10.27.09637-12.77728-.41717-27.83991,8.47614-32.22675,16.62818,1.58515-.25476,2.43988-1.8338,3.9845-2.01526.1825-.28864.54395-.566.72369-.251.2223.38965-.306.36353-.54772.47278a4.40225,4.40225,0,0,1-1.89972,2.14264A40.59487,40.59487,0,0,0,221.1822,201.7015c-.46051,1.469-1.60559,2.94293-1.02069,5.12756a41.02645,41.02645,0,0,1,2.84784-4.55865c1.5603-1.88678,2.26013-4.405,4.37414-5.86548.19751-1.16,1.0633-1.74219,2.22217-2.5202a3.35592,3.35592,0,0,1-2.02911,2.72522c-.14307.791-.02124,1.81494-.47669,2.33038-2.45935,2.7832-3.95538,6.14087-5.74627,9.31018a49.23891,49.23891,0,0,0-5.74652,14.71448c-.33436,1.70489-.24952,3.18908,1.4967,4.45929a27.02206,27.02206,0,0,1,6.93561,7.8283,3.45778,3.45778,0,0,0,3.34033,1.86933c5.90582-.39227,11.7055-.93042,16.92566-4.37561,2.01166-1.32764,2.48138-2.64777,2.087-4.62219a48.75574,48.75574,0,0,1-.39971-13.73981,33.88863,33.88863,0,0,1,8.05163-18.749c4.46088-5.43982,10.72485-7.54731,17.3371-8.77509a12.64014,12.64014,0,0,1,5.87347.27594c-3.02447,1.09686-5.42157,1.84167-7.71673,2.82385-5.21216,2.23035-10.10425,4.91022-12.78015,10.30109h-.00007a6.32724,6.32724,0,0,0-1.19,1.03955,33.36385,33.36385,0,0,0-5.61065,23.9389c.01129.08826.28881.14258.44915.216a3.07459,3.07459,0,0,0,.98828-2.66754c.008-1.978-.08215-3.96125.03107-5.93305.24591-4.28308,2.24133-6.819,6.215-7.71954a26.76464,26.76464,0,0,1,4.56842-.26441q.81426.03525,1.62842.07068a1.41746,1.41746,0,0,0-1.62958-.98816c-1.62787-.25641-3.25568-.51324-5.00861-.78979a9.41582,9.41582,0,0,1,6.46576-1.88654c-1.59534-.64221-2.89111-1.62256-4.54645-1.75091-3.49432-.27094-3.49151-.30713-1.71441-3.22242l-.32318-.02142q.16158.01062.32318.02136c.671-.70807,1.35742-1.40216,2.00958-2.12689,3.47089-3.85712,9.99322-7.22418,15.6214-5.00806,3.16943,1.248,6.18512,5.052,6.10168,8.23212,1.35486-1.00055,1.33771-3.27777-.19269-5.06348-1.2611-1.47155-2.68322-2.80572-4.03454-4.20007.87665-.4115,2.45331,1.15,2.76813-.96765.01123-.0755.82745-.21954.99316-.055,1.55231,1.54065,4.63739,1.231,5.143,3.91461.70166,3.72479,1.09381,7.48578-2.24433,10.36749-1.71313-.37848-1.271-2.68689-2.89154-3.10174a11.83353,11.83353,0,0,1-2.05749,1.74816c-1.76.91748-3.81812,1.205-5.21173-.29547-1.02216-1.10052-1.68165-2.876-.15424-4.39837.46991-.46839,1.96863-.66968.93451-1.59436a1.79611,1.79611,0,0,0-2.79993.53894c-.81842,1.61371-1.43567,3.28045-.81549,5.18414a8.79534,8.79534,0,0,0,7.58856,5.48016c4.532.18006,6.481-1.04266,8.03632-4.69232,1.48511-3.48468,1.095-7.08362.83093-10.65491-.102-1.37884.3479-1.92388,1.36133-1.24719,5.27655,3.52362,9.28784,8.06488,10.85864,14.40448a17.59269,17.59269,0,0,1,.47559,6.15405c-.47357,8.12616-6.76978,16.69031-15.42566,16.21894-3.16394-.17237-7.42151-2.42041-7.94074-5.194-.84008-4.48725.99219-7.90168,5.31574-9.50824,1.12219.81488,2.24438,1.62982,3.221,2.339.4309-1.66083-.86383-2.65461-2.59406-3.39075-2.4245-.21979-4.7818-.5014-6.91119,1.29956-6.14643,5.19836-5.06165,15.89349,2.086,19.68658,8.25378,4.38007,17.54565,2.24518,24.05157-3.74041,5.88409-5.41352,7.9129-12.65442,8.47565-20.36316.14453-1.97949.16345-2.95478,2.89886-2.68549a11.59414,11.59414,0,0,0,9.74335-3.62646c4.14618-4.29029,3.80737-14.12268-.7038-19.40851q-.79953-.00375-1.59906-.00757C320.40809,186.00405,321.97492,187.03737,321.69563,188.77328Zm-45.024,3.1029c.051.02.126.026.14746.06305a.38033.38033,0,0,1,.0318.13428ZM300.322,181.2524q-.29343-.48577-.5863-.97088a1.89117,1.89117,0,0,0-.24878-1.24695,1.89353,1.89353,0,0,1,.24927,1.24774c1.28143-.2497,1.71222.3576,1.57922,1.533Q300.81867,181.5339,300.322,181.2524ZM317.637,201.6506c-2.22961,1.74432-4.60364,1.54547-6.85876.50762-1.57941-.7268-1.90766-2.43188-1.871-4.18652.03564-1.7063,1.09039-2.58966,2.30017-3.38989.72369-.47876,1.3454-.04572,1.93207.45495.8518.72693,1.75164,1.39777,2.71234,2.15674-.15528-3.97589-2.93122-5.87921-6.29621-4.41357-1.60522.69922-2.475.70691-3.058-1.37238a50.37659,50.37659,0,0,0-3.00427-6.86358,2.85041,2.85041,0,0,1-2.15741-2.69611c1.64831.14856,1.80066,1.78558,2.67791,2.70123,1.99683,1.80634,4.75385,1.01673,7.02076,2.09632,4.05365,1.93054,7.42456,4.39868,8.52941,8.99084A5.4129,5.4129,0,0,1,317.637,201.6506Z"/><path class="cls-1" d="M153.86732,227.032a176.42728,176.42728,0,0,0,23.127-9.48346c1.43158-.73565,1.23249-1.75232.76014-2.959-1.15162-2.94189-3.89588-4.03455-6.296-5.55371-1.90332-1.20471-3.67443-.95264-5.6333-.02533a60.52749,60.52749,0,0,1-7.70385,3.0835c-9.64936,3.03222-19.07831,6.69012-28.65454,9.92205-6.42243,2.16761-12.95893,3.99848-19.447,5.97156-3.087.93878-6.18005,1.85791-9.27032,2.78589a11.62907,11.62907,0,0,0,5.21136.19135c4.99329-1.00934,9.96436-2.15632,14.989-2.97468,5.23578-.85278,10.41363-1.96716,15.61932-2.955,4.56146-.86554,9.00806-2.35364,13.68994-2.57593.91809-1.82733,2.54114-.64642,4.26831-1.15082-1.24322,1.36481-2.5462,1.31989-3.68493,1.65491q-10.842,4.68337-21.68335,9.36755-3.5658,1.35984-7.13153,2.71979c3.0025-.369,6.10608-.07275,8.78393-1.68048a30.06412,30.06412,0,0,0,7.25421-1.48157C143.30244,230.17916,148.64845,228.83864,153.86732,227.032Z"/><path class="cls-1" d="M228.94746,178.955a12.902,12.902,0,0,0-2.16553.7326c-4.02154,2.47321-8.10681,4.86157-12.29114,7.04822-6.94574,3.62958-14.028,6.99921-20.96661,10.64166-4.45819,2.34033-4.88483,4.3515-2.442,8.56513a118.08139,118.08139,0,0,1,6.08808,11.06805c1.12219,2.5268,2.50274,2.35486,4.34949,1.43488q5.2477-2.6142,10.41674-5.38465a3.9043,3.9043,0,0,0,2.479-3.24994c.55761-7.30169,3.47192-13.77917,7.11792-20.01055C223.74024,186.02883,226.64381,182.74911,228.94746,178.955Zm-18.37158,29.91681c-.04047.6278-.41791.86639-.85743,1.2243a21.24839,21.24839,0,0,1-7.64172,3.78119c.33228-.96051.55151-1.59412.78681-2.27423-1.0998-.70044-2.267.80817-3.35456-.29187,2.09833-2.70471,5.56226-4.10431,7.21625-7.502-2.48682,1.044-5.02869.72046-7.52875.8974-2.03906.14429-2.381-.41027-.80658-1.87115-1.00458-.80933-2.16607-.04413-3.4834-.78864,7.05994-2.94818,12.86878-7.53344,20.212-10.72265C212.96687,197.52328,210.95436,202.99593,210.57588,208.87179Z"/><path class="cls-1" d="M333.48939,153.00844c-1.01691-2.43975-2.145-4.79339-4.51648-6.18731a71.2816,71.2816,0,0,1,3.3623,7.344c.06165.525.08985,1.0564.18934,1.57416,1.404,7.31006,1.09387,14.361-3.0315,20.87842a8.53659,8.53659,0,0,1-8.65332,3.56018c-1.1842-.294-1.063-.94586-.38409-1.45642,1.61816-1.217,2.19793-3.22925,3.67773-4.52606a5.51989,5.51989,0,0,0,1.20441-1.03022c4.1709-6.499,3.91974-13.25549,1.09845-20.14184-.20679-.5047-.48523-1.10169-1.15131-.878-2.6969.9057-2.70141-.84577-2.94989-2.70105-.18493-1.38129-.26922-3.28089-2.75635-2.67694.01868.91351,1.54444,1.64227.31372,2.5606a1.14925,1.14925,0,0,1-.954.21442,2.266,2.266,0,0,1-1.3844-2.39789,3.87236,3.87236,0,0,0-.05854-1.87365c-.43567-.99317-1.29162-2.0868-2.41809-1.51429-1.18426.60187-.04724,1.22827.43457,1.83539.71375.89935-.21313,1.15784-.74786,1.17523-1.50348.04883-2.65057-.40344-2.5827-2.2818.07879-2.18121-1.15894-2.52887-3.03217-2.04614.18494,1.05036,1.73273,2.06818.33392,2.86835-1.23907.70886-2.40832-.03589-3.18762-1.24677-.52948-.82269-.99957-1.75372-2.15112-1.8869-1.64472-2.11542-2.47894-.93768-3.32684.70752.91931.6922,1.85778.17322,2.6817.44061-.15876,2.501-.87067,2.98108-3.16486,2.35791a7.76111,7.76111,0,0,1-2.98132-1.76709c-1.77582-1.52972-3.35571-.92053-5.18317-.12994.70679,1.02033,1.613.47528,2.32868.68726a1.79957,1.79957,0,0,1,1.26068,2.54358c-.33484,1.06024-3.35749,1.68359-4.38813.9801a7.54808,7.54808,0,0,0-6.62847-1.3642,3.59532,3.59532,0,0,0-2.40473,3.00379,1.95586,1.95586,0,0,0,1.079,2.03186,1.4111,1.4111,0,0,0,2.13965-.3042c.29657-.41425.7652-.90515.06854-1.35114-.48749-.31213-1.75189.12256-1.27075-1.0451a1.72689,1.72689,0,0,1,1.90149-1.22358,2.44766,2.44766,0,0,1,1.89221,1.72834c.34479,1.1632.32654,2.46557-.8454,3.163-1.13275.67413-2.01935,1.97937-3.84088,1.15448-1.37012-.62054-2.56573-2.1-4.38513-1.46771q-.292.378-.58411.75592l-.00567-.00525c-2.78357.76141-3.122,1.56-1.09839,3.84381-.28638-2.02393.24084-3.16846,2.18494-2.83465,1.36108,1.86322,1.60858,3.595-.61707,5.01409-2.51813,1.60559-4.74915,1.43738-6.61993-.486a5.30672,5.30672,0,0,1,.00323-6.32233,38.78486,38.78486,0,0,1,15.69458-10.92517,33.54942,33.54942,0,0,1,14.184-2.41919c-4.0495-1.81909-7.90649-.46588-11.84314-1.29266,4.56629-3.10321,9.422-3.15137,14.26373-3.49066-3.6361-.36731-7.16741-1.167-10.81976-.01282a17.68863,17.68863,0,0,0-8.92364,5.94739c-2.73621,3.47974-7.19239,4.13855-10.61145,6.50915-5.44477,3.77515-8.37622,9.03425-9.874,15.34028,1.17627.30926,1.58942-.53113,2.29926-.64826,4.75146-.78418,9.462-1.0332,14.0813.75006a2.87657,2.87657,0,0,0,3.90924-1.17169c1.82623-2.6369,3.59814-5.57483,6.10339-7.42847a26.45,26.45,0,0,1,22.43885-4.94171c10.7453,2.29364,16.62445,16.44574,9.834,24.66071a11.09814,11.09814,0,0,1-14.6109-2.959,4.2219,4.2219,0,0,1,1.14532-5.86438c3.34736-2.23321,6.06818-1.2409,8.6485,3.30811.90979-2.22119.73206-4.32581-.72546-5.87116-2.70837-2.87164-6.37024-3.30322-10.00934-2.55926-4.46551.91284-6.62732,3.49365-7.36468,7.4444-.29578,1.58459.34252,4.02185-3.191,3.96576,9.161,2.60784,17.04419,5.63153,23.37426,13.9154q.79944.00375,1.59925.00757c.3078-1.326,1.40741-1.77228,2.507-2.09784,5.17987-1.53345,8.49963-5.25452,10.3775-9.93561C337.4604,165.95034,336.34016,159.35024,333.48939,153.00844Z"/><path class="cls-1" d="M179.98255,220.36269c-.55487-.53674-.77746-.85931-1.86218-.272-5.49115,2.97314-11.1427,5.653-16.757,8.397-6.40631,3.13123-13.04931,5.70484-19.70538,8.24433q-2.06323.72747-4.12653,1.45489l.20057.64551c1.2857-.48566,2.90258.78937,3.932-1.05847,3.48017.16253,6.76642-.95655,10.08148-1.69574,4.77234-1.06409,9.46338-2.49848,14.17609-3.82117a158.05588,158.05588,0,0,0,16.54736-5.40015c.61762-.24932.99109-.47729.61658-1.134C182.06294,223.92953,181.52522,221.85494,179.98255,220.36269Z"/><path class="cls-1" d="M265.2049,210.10311c1.52924,1.48657,4.11115,2.22949,3.5799,5.25665-.33716,1.921-1.66956,2.77936-2.91632,3.95764a3.37628,3.37628,0,0,1-4.55634.48645c-1.777-1.29126-3.4151-3.01232-2.8717-5.65606.13483-.65589.66351-.73944,1.14374-.98133.65356-.3291,1.93756-.52038,1.30346-1.55676-.5628-.91986-1.54962-.3858-2.3612.16034-1.52832,1.02838-2.84741,2.69922-2.44885,4.19061a7.575,7.575,0,0,0,4.38311,5.41455c3.494,1.29712,6.42316.16816,8.98242-3.13336,3.0268-3.90454.91553-9.99841-3.94281-11.42907.14795,1.23614.356,2.51745-1.64019,2.142C264.08589,209.61672,264.80445,209.71383,265.2049,210.10311Z"/><path class="cls-1" d="M265.45716,206.79726c.0149.00428.02832.01111.04315.01551l-.00585-.04963Z"/><path class="cls-1" d="M263.86012,208.95473l-.00745-.01239-.00928.01062Z"/><path class="cls-1" d="M299.804,176.89175a.89141.89141,0,0,1,.42627-1.02668l.00756-.008c1.57105-.67157,3.10132-1.19477,3.86927,1.059.87957-.18183,2.27337.66626,2.53766-.64453.2561-1.26984-1.4275-1.02662-2.12171-1.65552-.69507-.6297-1.7312-.46344-2.61121-.38983a10.03168,10.03168,0,0,1-7.38519-2.64594c-1.50384-1.22522-2.92737-2.6466-5.0152-2.88257a2.58034,2.58034,0,0,0-.20184.189c.53607,1.45294,2.0517,1.92657,2.97687,2.97137,1.53113,1.72913,4.35718,2.27368,4.70154,5.08277q.51049.01446,1.02069.029Q298.906,176.9309,299.804,176.89175Z"/><path class="cls-1" d="M296.98805,176.94076l-.01776-.00049.00134.02209c.00677-.0014.01337.00086.02014-.00079Z"/><path class="cls-1" d="M288.42073,167.78634c-.28895.027-.54462.18115-.446.49933.20795.67065.83692.51269,1.3349.60095a2.59375,2.59375,0,0,1,.2-.1875C289.3852,168.11129,289.08448,167.72426,288.42073,167.78634Z"/><path class="cls-1" d="M263.85267,208.94234l-.01507-.00067.00585.01117Z"/><path class="cls-1" d="M264.85133,205.87533c-.07477-.00049-.22809.37408-.21539.38263.26409.17743.54559.329.82434.485C265.50971,206.28438,265.4593,205.87911,264.85133,205.87533Z"/><path class="cls-1" d="M265.45722,206.79714l.03724-.034-.03418-.02014C265.45826,206.76162,265.45954,206.77834,265.45722,206.79714Z"/><path class="cls-1" d="M279.07667,152.31943q-.29235.37845-.58487.75683C278.5467,152.71606,278.57213,152.33315,279.07667,152.31943Z"/><path class="cls-1" d="M311.08505,182.39037l.75464.19731c-.41881.48508-.55881.0819-.72821-.22785Z"/><path class="cls-1" d="M287.37755,166.94985c-.05928.02433-.1216.07209-.17687.065-.05573-.00715-.10443-.06873-.15621-.10647Q287.21106,166.92883,287.37755,166.94985Z"/><path class="cls-1" d="M318.18043,186.69994l-.22924-.098.2011.12643Z"/><path class="cls-1" d="M132.10877,138.10763c-5.89245,1.38922-11.96124,2.304-17.62133,4.34466-10.06244,3.62781-20.1875,7.26435-28.917,13.79987a56.82979,56.82979,0,0,0-8.5,7.22021c-3.76745,4.186-3.61,10.88843.84723,14.16773,6.26172,4.60693,13.37213,3.01867,16.8902-3.85437,1.74078-3.40088-.0871-6.03516-3.96472-6.03138-1.46845.00147-2.93671.21161-4.5285.33631,1.57367-2.59357,4.07763-3.82569,6.509-3.33673,3.24933.6535,5.46673,2.683,5.91778,5.46643a10.40467,10.40467,0,0,1-2.14367,7.85327c-5.60358,7.70612-15.05194,9.47388-24.05084,4.73358-4.28937-2.25946-7.345-5.57349-7.55841-10.814-.07782-1.9126-.82013-2.71741-2.7121-1.29413-1.04535.78631-2.37134,1.18994-3.47186,1.91565a134.08115,134.08115,0,0,0-20.43018,16.658c-1.63446,1.61529-3.86536,2.93133-4.23016,5.564,10.62469-4.16333,21.70166-5.14355,33.00213-4.89551,2.75043.06037,5.32544.92023,8.02551,1.01954a386.83911,386.83911,0,0,0,40.11164-1.04853c.1936-.01294.37042-.27484.54321-.41113-.08819-.1593-.11121-.27057-.1748-.30334-.23169-.11957-.48017-.20606-.71662-.31714-3.7315-1.75379-7.54553-3.54938-9.08056-7.722-1.90406-5.176.06427-9.54138,3.61956-13.28876,4.7829-5.04138,10.80384-8.28466,17.10846-10.92144,2.95789-1.23713,5.064-2.62934,6.01056-5.96491.60175-2.12036-1.19641-3.15387-1.11822-4.72809.13788-2.77459-.69544-1.84442-2.16919-.9212-1.96686,1.23212-2.45728,3.18469-3.1789,5.08307-.81762,2.151-1.5086,4.64288-3.95318,5.29608-3.68994.986-5.9845-.67847-6.57208-4.51416-.31269-2.041-.91492-1.41712-1.99231-.59735a8.67846,8.67846,0,0,0-3.37018,7.817,5.70119,5.70119,0,0,1-2.8877,5.36713c-2.60821,1.71454-4.2182,1.33606-5.72009-1.31543a6.97246,6.97246,0,0,0-4.42682-3.53064c-1.56476-.42737-3.14459-.91052-5.05225-1.28064,7.30817-6.69861,15.9867-10.0365,24.70685-13.10382A59.84859,59.84859,0,0,1,132.456,141.1155c1.3805-.09747,1.46607-1.17651,1.4419-2.17957C133.86549,137.59127,132.8495,137.933,132.10877,138.10763Z"/><path class="cls-1" d="M34.13264,194.88808c.00232-.01819.00909-.03326.0116-.05133l-.04059.01514Z"/><path class="cls-1" d="M244.22773,159.80178a25.57836,25.57836,0,0,1-14.225-1.39179c-5.46375-2.31561-8.37079-6.66259-9.96778-12.118-.24072-.82239-.167-1.81732-1.448-1.96765-2.06188-.24194-4.101-.72162-6.16632-.87146-1.06909-.07764-2.77148-.68634-3.13037.59412-.32342,1.15381.57032,2.57232,1.49762,3.57556a20.192,20.192,0,0,0,1.90857,1.47912c1.21436,1.027,2.472,2.01752,3.583,3.14924,4.4408,4.52392,4.26288,11.38958-.72,14.62109a24.62261,24.62261,0,0,0-6.60022,6.7981,5.902,5.902,0,0,0-.83331,1.04077c-.31653.64666-1.31342,1.369-.29853,2.04583a1.45161,1.45161,0,0,0,2.07447-.61975,7.45934,7.45934,0,0,1,.6867-.82226c1.41187.24933,2.56909-.543,3.84778-.86212a105.021,105.021,0,0,0,24.79407-9.99958c2.30853-1.25732,4.94232-2.16284,6.63061-4.87085C245.08692,159.68569,244.65608,159.73568,244.22773,159.80178Z"/><path class="cls-1" d="M44.49494,207.896c-3.84674-.15436-6.34307,2.79431-6.62756,6.56592-.256,3.39392,3.34387,7.63867,6.32642,7.77459,3.32391.15155,7.18768-3.75439,7.20886-7.28753A6.969,6.969,0,0,0,44.49494,207.896Z"/><path class="cls-1" d="M184.75971,149.55178c-3.577-3.62109-3.58618-3.61121-5.69934,1.04681a4.03316,4.03316,0,0,0-.44745.95258c-.0924.62219-.15905,1.30176.72168,1.48639,1.746.3659,2.72785,1.76336,3.91236,2.88952,4.57831,4.35291,5.38775,9.47138,2.09668,14.82691a47.742,47.742,0,0,1-9.11438,10.21472c6.72314.824,9.11426-.174,10.86822-4.19281,1.32337-3.03229,2.598-6.09082,4.05731-9.05768,2.11811-4.30615,2.88123-8.23364-1.08789-12.15088C188.19367,153.71859,186.64436,151.45962,184.75971,149.55178Z"/><path class="cls-1" d="M34.10365,194.85188l-.40083.28417-.074-.23572q.25142-.00666.50333-.01281Z"/></g></g></svg>