<svg xmlns="http://www.w3.org/2000/svg" viewBox="0 0 507.38973 60.30762"><defs><style>.cls-1{fill:#fff;}</style></defs><title>Asset 5</title><g id="Layer_2" data-name="Layer 2"><g id="Layer_3" data-name="Layer 3"><path class="cls-1" d="M29.00391,45.62988a34.67929,34.67929,0,0,1,1.43554,3.22266,17.85322,17.85322,0,0,1-1.88965,1.65527q-1.18651.92286-2.915,2.06543A22.25341,22.25341,0,0,1,22.544,54.4043a5.09953,5.09953,0,0,1-1.91895.57129,4.60724,4.60724,0,0,1-2.57812-.74707,5.80658,5.80658,0,0,1-1.9336-2.29981q-.11718-.23437-.23437-.498a3.55808,3.55808,0,0,0-.293-.52734q-.87891-.84961-1.69922-1.69922a22.57346,22.57346,0,0,1-1.47949-2.00683Q11.30859,45.60058,9.668,42.81738,8.93555,41.499,8.08594,40.166t-1.75782-2.71a6.21663,6.21663,0,0,0-.542,1.64063,32.30039,32.30039,0,0,0-.57129,3.51562,4.79673,4.79673,0,0,1-.23437,1.15723,4.81,4.81,0,0,0-.23438,1.18652A3.22947,3.22947,0,0,0,4.834,45.542a3.24061,3.24061,0,0,1,.0879.58594,26.8811,26.8811,0,0,1-.32227,3.39844,26.89645,26.89645,0,0,0-.32227,3.39843,2.386,2.386,0,0,1-.293,1.333,1.123,1.123,0,0,1-.9961.42481,5.11218,5.11218,0,0,1-1.17187-.20508,7.19891,7.19891,0,0,1-.9668.20508.6993.6993,0,0,1-.61523-.46875A3.53687,3.53687,0,0,1,0,52.71973,5.80175,5.80175,0,0,1,.17578,51.5918a5.82467,5.82467,0,0,0,.17578-1.18653,6.16685,6.16685,0,0,0-.10254-.9082,6.148,6.148,0,0,1-.10254-.87891q0-.29149.16114-1.77246.16113-1.478.51269-4.2334.293-2.87109.542-4.51171a17.83916,17.83916,0,0,1,.36622-1.99219,4.82209,4.82209,0,0,1,.26367-.61524,3.09908,3.09908,0,0,0,.26367-.84961l-.52734-1.99218q.26367-1.60988.67382-4.76075.41016-3.14794.9668-7.9248.32226-2.8125.49805-4.36523t.20508-1.75782A5.90144,5.90144,0,0,1,5.5957,11.44043,6.64965,6.64965,0,0,1,8.20312,9.97559q.20508-.14649.498-.39551a8.15168,8.15168,0,0,1,.73242-.542h.0586q.41015,0,1.084,1.23046a5.03066,5.03066,0,0,1,.70313,1.99219,5.14247,5.14247,0,0,1-.07325.76172,7.64055,7.64055,0,0,1-.27832,1.11328c-.15625.50879-.2832.92774-.38085,1.25977-.09766.333-.15626.55664-.17579.67383Q9.81445,18.00293,9.11133,20.918q-.70312,2.9165-1.55274,6.87012c-.03906.21582-.08789.48339-.14648.80566a7.05778,7.05778,0,0,1-.32227,1.12793q-.11718.61524-.23437,1.09863a3.62178,3.62178,0,0,0-.11719.835,1.95221,1.95221,0,0,0,.35156,1.02539,11.7856,11.7856,0,0,0,3.38379-2.87109q2.32911-2.48877,5.99121-7.002a90.55124,90.55124,0,0,0,5.58106-7.44141q1.86034-2.87109,1.86035-4.01367a1.86291,1.86291,0,0,0-.542-1.084,1.87185,1.87185,0,0,1-.542-1.11328,1.83626,1.83626,0,0,1,.835-1.52343,6.37281,6.37281,0,0,1,2.56347-.9375,2.60946,2.60946,0,0,0,1.09864-.60059,2.26242,2.26242,0,0,1,1.27441-.57129,9.65477,9.65477,0,0,0,.9668.11719,11.07143,11.07143,0,0,0,1.17187-.64453A3.04123,3.04123,0,0,1,31.47949,6.167a4.62886,4.62886,0,0,1,.21973,1.49414,10.09645,10.09645,0,0,1-.39551,2.959,4.41778,4.41778,0,0,1-1.24512,2.05078c-.15625.15722-.332.32715-.52734.51269a5.0915,5.0915,0,0,0-.55664.62989,17.86978,17.86978,0,0,1-1.55273,2.63672q-.99611,1.43555-2.34376,3.16406-3.04686,3.7207-5.5664,6.5332t-4.57031,4.7168a10.08809,10.08809,0,0,0-1.27442,1.377,1.825,1.825,0,0,0-.4248.99609q.61522,1.17188,1.05469,2.168.8496,2.02149,1.7871,3.95508t1.84571,3.89649a22.2101,22.2101,0,0,0,2.87109,4.42382,3.55013,3.55013,0,0,0,2.40234,1.46485,4.36391,4.36391,0,0,0,1.05469-.41016q.87891-.41016,2.31446-1.14258a4.74951,4.74951,0,0,1,1.3623-1.11328Q28.97461,45.83643,29.00391,45.62988Z"/><path class="cls-1" d="M32.82422,42.37793a3.92456,3.92456,0,0,1-.10254-.62988c-.00977-.165-.01465-.30762-.01465-.42481a6.2736,6.2736,0,0,1,.27832-1.97754,3.49355,3.49355,0,0,1,.835-1.3916,2.43355,2.43355,0,0,1,.70313-.4248q.58593-.27833,1.52344-.65918a3.56645,3.56645,0,0,0,1.084-.76172,1.60953,1.60953,0,0,0,.43945-1.05469,5.51685,5.51685,0,0,1,.42481-1.12793q.30762-.62988.74707-1.3916.11718-.20361.82031-2.417.70313-2.21192,1.99219-6.48926.35155-1.31836.70312-2.27051.35157-.95069.58594-1.59668a16.95494,16.95494,0,0,1,1.8457-3.92578,15.99994,15.99994,0,0,0,1.084-1.52344v-.17578l-1.11328-1.72851,1.377-1.582,1.75781-.35157q.52734-.08788.9668-.99609a7.74223,7.74223,0,0,1,1.52344-1.99219,3.83976,3.83976,0,0,0,.80566-.4541q.542-.36621,1.3916-1.04A8.46379,8.46379,0,0,1,53.74219,5.127a1.95373,1.95373,0,0,1,.82031-.27832,2.01452,2.01452,0,0,1,1.3623.38086,1.31,1.31,0,0,1,.42481,1.02539A5.34613,5.34613,0,0,1,55.544,8.49609a5.35485,5.35485,0,0,0-.80567,2.24121,1.08651,1.08651,0,0,0,.14649.58594.61818.61818,0,0,0,.38085.293l4.21876,2.28516c.23437.09863.44433.46875.62988,1.11328a16.09241,16.09241,0,0,1,.4541,2.666q.20508,1.40625.32226,2.32911a12.46524,12.46524,0,0,1,.11719,1.50878q-.23437,1.49415-.46875,3.04688.35157,1.96289.76172,4.16016-.20508,2.05077-.46875,4.21875a.74963.74963,0,0,0,.08789.36621.35152.35152,0,0,0,.26367.19043,1.38006,1.38006,0,0,1,.90821.30761,1.021,1.021,0,0,1,.293.77637,2.21711,2.21711,0,0,1-.19043,1.01074,1.37789,1.37789,0,0,1-.542.57129c-.3125.19531-.55664.36231-.73242.498a1.46113,1.46113,0,0,0-.35156.35156l.43945,2.168-.61523,5.00977q0,.61523-.10254,1.59668-.10254.9829-.33692,2.2998-.35155.939-.52734,1.56738a3.94749,3.94749,0,0,0-.17578.86426c.11719.3916.22461.81055.32227,1.25977q-.20508.939-.43946,1.88965-.23437.95214-.43945,1.86035A3.97564,3.97564,0,0,1,57.68262,57.334a2.13118,2.13118,0,0,1-1.4795.57129.73326.73326,0,0,1-.68847-.3955,2.59255,2.59255,0,0,1-.21973-1.21582,6.24565,6.24565,0,0,1,.11719-1.01075,6.24659,6.24659,0,0,0,.11719-1.01074,4.24051,4.24051,0,0,0-.07325-.68848,4.34392,4.34392,0,0,1-.07324-.71777q0-.99464.20508-3.14941.20508-2.15333.20508-3.23731L55.44141,45.249q.08789-.67383.14648-1.377v-.43945a5.40287,5.40287,0,0,0-.05859-.82032l.52734-.96679-.43945-3.252-.26367-.11718a1.91712,1.91712,0,0,0-.61524.16113,6.988,6.988,0,0,0-.99609.5127,8.07541,8.07541,0,0,1-1.31836.293,20.456,20.456,0,0,1-2.373.20508q-.64454.293-1.20117.55664a17.72935,17.72935,0,0,0-2.02149.61524q-1.23046.43945-2.87109,1.05468a13.35505,13.35505,0,0,1-1.72851.73243,4.338,4.338,0,0,1-1.31836.26367.91764.91764,0,0,0-.70313.32226,2.33815,2.33815,0,0,0-.46875.90821,7.27937,7.27937,0,0,1-.49805,1.53808q-.41014.98292-1.084,2.47559-.1172.38087-.36621,1.18652-.249.80714-.57129,2.00684-.20508.46875-.4834,1.14258t-.62988,1.582a7.62586,7.62586,0,0,1-.08789,1.05469q-.0879.61522-.26367,1.40625-.17578.498-.4834,1.25976t-.74707,1.66992a1.85071,1.85071,0,0,1-.82032.82032,3.01068,3.01068,0,0,1-1.34765.26367,1.16279,1.16279,0,0,1-.95215-.41016,1.9068,1.9068,0,0,1-.33691-1.23047,11.55913,11.55913,0,0,1,.21972-2.10937,22.82568,22.82568,0,0,1,.65918-2.57813q.498-1.8457.84961-3.00293a8.0111,8.0111,0,0,0,.38086-1.74316,7.19722,7.19722,0,0,0,.32227-.86426q.20508-.62988.498-1.53809.293-.87889.58594-2.02148l-.17578-.26367-1.11328.17578a.752.752,0,0,1-.55664-.33691,1.32464,1.32464,0,0,1-.17578-.71778,2.29678,2.29678,0,0,1,.07324-.55664C32.68262,42.916,32.74609,42.6709,32.82422,42.37793Zm12.77344-6.44531a10.818,10.818,0,0,0,2.373-.39551,10.84394,10.84394,0,0,1,2.40235-.39551,9.21305,9.21305,0,0,0,.96679.17578q.87891-.17577,1.72852-.3955t1.72852-.39551a1.0355,1.0355,0,0,0,.52734-.27832.72461.72461,0,0,0,.17578-.5127q-.05859-1.05468-.05859-1.43555a14.12605,14.12605,0,0,1,.08789-1.49414q.08789-.81883.26367-1.69921l-.43945-1.582L55.5,26.08887q-.14649-.791-.23438-1.49414-.02929-.32227-.02929-.61524a3.60464,3.60464,0,0,1,.02929-.498c-.05859-.09766-.14648-.25293-.26367-.46875q-.17577-.32227-.38086-.67383-.35156-.58595-.71777-1.12793t-.71777-1.09864a3.59073,3.59073,0,0,0-1.05469-.99609A2.30421,2.30421,0,0,0,50.959,18.794q-.70312,0-1.43554,1.12793a12.96824,12.96824,0,0,0-1.377,3.41308,7.99963,7.99963,0,0,1-.57128,1.17188q-.48341.8789-1.36231,2.28515a13.13118,13.13118,0,0,1-.95215,3.31055,47.96873,47.96873,0,0,1-2.24121,4.6582.84622.84622,0,0,0-.19043.41016q-.01464.17578-.01465.41015a.47446.47446,0,0,0,.11719.35157.523.523,0,0,0,.38086.11718c.23438,0,.61523-.01855,1.14258-.05859Q45.24609,35.93262,45.59766,35.93262Z"/><path class="cls-1" d="M96.23438,6.40137a1.3171,1.3171,0,0,1,1.14257.4834A2.46159,2.46159,0,0,1,97.72852,8.335a32.01222,32.01222,0,0,1-.16114,3.3252,13.875,13.875,0,0,1-.542,2.73925q-.52734,1.52344-1.01074,2.97364t-.95215,2.97363a5.52219,5.52219,0,0,0-.70312.9082q-.0879.73242-.17579,1.43555a1.15083,1.15083,0,0,1-.27832.542,7.81561,7.81561,0,0,1-.57129.57129c-.07812.23438-.17578.50879-.293.82031-.11719.3125-.25391.68457-.41016,1.11328Q91.72266,27.52441,90.18457,30q-1.53808,2.47706-3.706,5.69824-.02931.5874-.0293,1.05469L84.457,40.97168q-.99609,2.28516-1.75781,4.37988a27.56082,27.56082,0,0,0-1.14258,3.999q-.20508,1.05468-.33691,1.74316a6.06481,6.06481,0,0,0-.13184.95215,2.46653,2.46653,0,0,0,.42481,1.06933,2.89249,2.89249,0,0,1,.4248.89356q0,.791-2.05078,2.02148a7.60313,7.60313,0,0,1-2.49024,1.17188h-.05859q-.52734-.0879-1.11328-.17578t-1.084-.20508a2.97654,2.97654,0,0,1-1.11328-.46875.91731.91731,0,0,1-.38086-.76172,7.7602,7.7602,0,0,1,.23438-1.377,20.91764,20.91764,0,0,1,.791-2.8125,11.67242,11.67242,0,0,1,1.17187-2.373l.11719-.14648a.63826.63826,0,0,1-.16114-.33692,1.82869,1.82869,0,0,0-.16113-.4541q.17578-.64306.498-1.55273.32226-.90675.84961-2.10938a8.27188,8.27188,0,0,0,.70312-1.49414,15.67231,15.67231,0,0,0,.61524-2.13867,10.88937,10.88937,0,0,1-2.03614-2.124,7.1619,7.1619,0,0,1-1.12793-2.3584q-.26367-.61524-.71777-1.53809t-.98144-2.24121L70.834,23.56934q-.11718-1.0547-.30761-2.50489t-.60059-3.32519l.293-.791-.58594-.791a7.44171,7.44171,0,0,0-.05859-.77637c-.03906-.34082-.08789-.75684-.14649-1.24512a9.13367,9.13367,0,0,1-.13183-1.21582c-.00977-.34082-.01465-.62988-.01465-.86426a4.32387,4.32387,0,0,1,.38086-2.02148A1.68968,1.68968,0,0,1,70.834,9.15527c.15625,0,.33692-.0039.542-.01465q.30761-.01464.65918-.01464A10.22359,10.22359,0,0,0,74.584,8.0127a2.38056,2.38056,0,0,1,1.59668.51269,2.55488,2.55488,0,0,1,.80567,1.4502,11.8512,11.8512,0,0,1,.13183,1.3916q.04395.895.04395,2.124,0,.6753-.13184,1.93359-.13183,1.25977-.13183,1.875a2.1893,2.1893,0,0,0,.05859.46875q.05859.26368.11719.70313.05859,1.17188.27832,2.8418t.57129,3.80859q.20508,1.25976.62988,3.14941t.98145,4.37989a7.546,7.546,0,0,1,.58593.82031,10.87639,10.87639,0,0,1,.58594,1.084l.23438.14649q.23438,0,1.05468-1.61133.82032-1.60986,2.25586-4.80469Q84.457,27.876,84.75,27.1875q.293-.687.67383-1.59668a3.79851,3.79851,0,0,0,.38086-.55664c.13672-.23438.30273-.5166.498-.84961q.17579-.61524.52735-1.53809t.8789-2.18261q.43945-.81885,1.0254-1.99219.58593-1.1704,1.28906-2.8125a18.86317,18.86317,0,0,1,1.31836-2.2998q1.28905-2.09327,3.7207-5.99122a2.67084,2.67084,0,0,1,.58594-.70312A.96666.96666,0,0,1,96.23438,6.40137Z"/><path class="cls-1" d="M97.35938,42.37793a3.92343,3.92343,0,0,1-.10254-.62988c-.00977-.165-.01465-.30762-.01465-.42481a6.2736,6.2736,0,0,1,.27832-1.97754,3.49344,3.49344,0,0,1,.835-1.3916,2.43344,2.43344,0,0,1,.70312-.4248q.58594-.27833,1.52344-.65918a3.56638,3.56638,0,0,0,1.084-.76172,1.60958,1.60958,0,0,0,.43945-1.05469,5.51675,5.51675,0,0,1,.4248-1.12793q.30762-.62988.74707-1.3916.11719-.20361.82032-2.417.70313-2.21192,1.99218-6.48926.35157-1.31836.70313-2.27051.35155-.95069.58594-1.59668a16.95452,16.95452,0,0,1,1.8457-3.92578,15.99768,15.99768,0,0,0,1.084-1.52344v-.17578l-1.11328-1.72851,1.377-1.582,1.75781-.35157q.52734-.08788.9668-.99609a7.74216,7.74216,0,0,1,1.52343-1.99219,3.83976,3.83976,0,0,0,.80567-.4541q.542-.36621,1.3916-1.04a8.46429,8.46429,0,0,1,1.25976-.86426,1.95376,1.95376,0,0,1,.82032-.27832,2.01452,2.01452,0,0,1,1.3623.38086,1.31,1.31,0,0,1,.42481,1.02539,5.346,5.346,0,0,1-.80567,2.24121,5.3548,5.3548,0,0,0-.80566,2.24121,1.0866,1.0866,0,0,0,.14648.58594.6182.6182,0,0,0,.38086.293l4.21875,2.28516c.23438.09863.44434.46875.62988,1.11328a16.09119,16.09119,0,0,1,.45411,2.666q.20506,1.40625.32226,2.32911a12.46524,12.46524,0,0,1,.11719,1.50878q-.23437,1.49415-.46875,3.04688.35155,1.96289.76172,4.16016-.20508,2.05077-.46875,4.21875a.74952.74952,0,0,0,.08789.36621.35148.35148,0,0,0,.26367.19043,1.38,1.38,0,0,1,.9082.30761,1.021,1.021,0,0,1,.293.77637,2.217,2.217,0,0,1-.19043,1.01074,1.3778,1.3778,0,0,1-.542.57129c-.3125.19531-.55664.36231-.73242.498a1.46113,1.46113,0,0,0-.35156.35156l.43945,2.168-.61524,5.00977q0,.61523-.10253,1.59668-.10254.9829-.33692,2.2998-.35155.939-.52734,1.56738a3.94749,3.94749,0,0,0-.17578.86426c.11718.3916.22461.81055.32226,1.25977q-.20508.939-.43945,1.88965-.23437.95214-.43945,1.86035a3.97555,3.97555,0,0,1-1.01075,1.80175,2.13116,2.13116,0,0,1-1.47949.57129.73329.73329,0,0,1-.68848-.3955,2.59269,2.59269,0,0,1-.21972-1.21582,6.24565,6.24565,0,0,1,.11719-1.01075,6.24633,6.24633,0,0,0,.11718-1.01074,4.24031,4.24031,0,0,0-.07324-.68848,4.34283,4.34283,0,0,1-.07324-.71777q0-.99464.20508-3.14941.20508-2.15333.20507-3.23731l-.35156-1.23047q.0879-.67383.14649-1.377v-.43945a5.40154,5.40154,0,0,0-.0586-.82032l.52735-.96679-.43946-3.252-.26367-.11718a1.91708,1.91708,0,0,0-.61523.16113,6.98854,6.98854,0,0,0-.9961.5127,8.07515,8.07515,0,0,1-1.31836.293,20.45557,20.45557,0,0,1-2.373.20508q-.64453.293-1.20117.55664a17.72814,17.72814,0,0,0-2.02149.61524q-1.23047.43945-2.87109,1.05468a13.35455,13.35455,0,0,1-1.72852.73243,4.33786,4.33786,0,0,1-1.31836.26367.91764.91764,0,0,0-.70312.32226,2.338,2.338,0,0,0-.46875.90821,7.28,7.28,0,0,1-.498,1.53808q-.41016.98292-1.084,2.47559-.11719.38087-.36621,1.18652-.249.80714-.57129,2.00684-.20508.46875-.4834,1.14258t-.62989,1.582a7.6243,7.6243,0,0,1-.08789,1.05469q-.08788.61522-.26367,1.40625-.17577.498-.4834,1.25976t-.74707,1.66992a1.85068,1.85068,0,0,1-.82031.82032,3.0107,3.0107,0,0,1-1.34766.26367,1.16279,1.16279,0,0,1-.95214-.41016,1.9068,1.9068,0,0,1-.33692-1.23047,11.55833,11.55833,0,0,1,.21973-2.10937,22.82354,22.82354,0,0,1,.65918-2.57813q.498-1.8457.84961-3.00293a8.01171,8.01171,0,0,0,.38086-1.74316,7.19947,7.19947,0,0,0,.32226-.86426q.20508-.62988.49805-1.53809.293-.87889.58594-2.02148l-.17578-.26367-1.11329.17578a.75207.75207,0,0,1-.55664-.33691,1.32472,1.32472,0,0,1-.17578-.71778,2.29681,2.29681,0,0,1,.07325-.55664C97.21777,42.916,97.28125,42.6709,97.35938,42.37793Zm12.77343-6.44531a10.81805,10.81805,0,0,0,2.373-.39551,10.844,10.844,0,0,1,2.40234-.39551,9.21323,9.21323,0,0,0,.9668.17578q.87891-.17577,1.72852-.3955t1.72851-.39551a1.03549,1.03549,0,0,0,.52735-.27832.72465.72465,0,0,0,.17578-.5127q-.05861-1.05468-.0586-1.43555a14.12872,14.12872,0,0,1,.08789-1.49414q.0879-.81883.26367-1.69921l-.43945-1.582.14649-1.43554q-.14649-.791-.23438-1.49414-.0293-.32227-.0293-.61524a3.60447,3.60447,0,0,1,.0293-.498c-.05859-.09766-.14648-.25293-.26367-.46875q-.17578-.32227-.38086-.67383-.35155-.58595-.71777-1.12793t-.71778-1.09864a3.5907,3.5907,0,0,0-1.05468-.99609,2.30424,2.30424,0,0,0-1.17188-.32226q-.70312,0-1.43555,1.12793a12.96827,12.96827,0,0,0-1.37695,3.41308,7.999,7.999,0,0,1-.57129,1.17188q-.48339.8789-1.3623,2.28515a13.13118,13.13118,0,0,1-.95215,3.31055,47.96873,47.96873,0,0,1-2.24121,4.6582.84612.84612,0,0,0-.19043.41016q-.01466.17578-.01465.41015a.47442.47442,0,0,0,.11719.35157.523.523,0,0,0,.38086.11718c.23437,0,.61523-.01855,1.14257-.05859Q109.78125,35.93262,110.13281,35.93262Z"/><path class="cls-1" d="M163.43555,45.62988a34.67929,34.67929,0,0,1,1.43554,3.22266,17.854,17.854,0,0,1-1.88964,1.65527q-1.18653.92286-2.915,2.06543a22.25341,22.25341,0,0,1-3.09082,1.83106,5.09953,5.09953,0,0,1-1.919.57129,4.60724,4.60724,0,0,1-2.57812-.74707,5.80666,5.80666,0,0,1-1.9336-2.29981q-.11718-.23437-.23437-.498a3.55717,3.55717,0,0,0-.293-.52734q-.87891-.84961-1.69922-1.69922a22.57346,22.57346,0,0,1-1.47949-2.00683q-1.09863-1.59669-2.73926-4.37989-.73242-1.31835-1.582-2.65136t-1.75781-2.71a6.21613,6.21613,0,0,0-.542,1.64063,32.30533,32.30533,0,0,0-.57129,3.51562,4.79673,4.79673,0,0,1-.23437,1.15723,4.81,4.81,0,0,0-.23438,1.18652,3.22947,3.22947,0,0,0,.08789.58594,3.24061,3.24061,0,0,1,.0879.58594,26.8811,26.8811,0,0,1-.32227,3.39844,26.89645,26.89645,0,0,0-.32227,3.39843,2.386,2.386,0,0,1-.293,1.333,1.123,1.123,0,0,1-.9961.42481,5.11218,5.11218,0,0,1-1.17187-.20508,7.19891,7.19891,0,0,1-.9668.20508.69931.69931,0,0,1-.61523-.46875,3.537,3.537,0,0,1-.23438-1.49414,5.80175,5.80175,0,0,1,.17578-1.12793,5.82467,5.82467,0,0,0,.17578-1.18653,6.16685,6.16685,0,0,0-.10254-.9082,6.148,6.148,0,0,1-.10254-.87891q0-.29149.16114-1.77246.16113-1.478.51269-4.2334.293-2.87109.542-4.51171a17.83767,17.83767,0,0,1,.36621-1.99219,4.82209,4.82209,0,0,1,.26367-.61524,3.09908,3.09908,0,0,0,.26367-.84961l-.52734-1.99218q.26367-1.60988.67382-4.76075.41016-3.14794.9668-7.9248.32226-2.8125.49805-4.36523t.20508-1.75782a5.90144,5.90144,0,0,1,1.52343-2.40234,6.64962,6.64962,0,0,1,2.60743-1.46484q.20506-.14649.498-.39551a8.15312,8.15312,0,0,1,.73242-.542h.0586q.41016,0,1.084,1.23046a5.03066,5.03066,0,0,1,.70313,1.99219,5.1436,5.1436,0,0,1-.07324.76172,7.64314,7.64314,0,0,1-.27832,1.11328c-.15626.50879-.28321.92774-.38086,1.25977-.09766.333-.15625.55664-.17579.67383q-.55664,1.93359-1.25976,4.84863-.70312,2.9165-1.55274,6.87012c-.03906.21582-.08789.48339-.14648.80566a7.05778,7.05778,0,0,1-.32227,1.12793q-.11718.61524-.23437,1.09863a3.62178,3.62178,0,0,0-.11719.835,1.95221,1.95221,0,0,0,.35156,1.02539,11.7856,11.7856,0,0,0,3.38379-2.87109q2.32911-2.48877,5.99121-7.002a90.55124,90.55124,0,0,0,5.58106-7.44141q1.86034-2.87109,1.86035-4.01367a1.86291,1.86291,0,0,0-.542-1.084,1.87185,1.87185,0,0,1-.542-1.11328,1.83626,1.83626,0,0,1,.835-1.52343,6.37281,6.37281,0,0,1,2.56347-.9375,2.60946,2.60946,0,0,0,1.09864-.60059,2.26242,2.26242,0,0,1,1.27441-.57129,9.65477,9.65477,0,0,0,.9668.11719,11.07143,11.07143,0,0,0,1.17187-.64453,3.04123,3.04123,0,0,1,.74707,1.17187,4.62886,4.62886,0,0,1,.21973,1.49414,10.09645,10.09645,0,0,1-.39551,2.959,4.41778,4.41778,0,0,1-1.24512,2.05078c-.15625.15722-.332.32715-.52734.51269a5.0915,5.0915,0,0,0-.55664.62989,17.86978,17.86978,0,0,1-1.55273,2.63672q-.9961,1.43555-2.34375,3.16406-3.04687,3.7207-5.56641,6.5332t-4.57031,4.7168a10.08809,10.08809,0,0,0-1.27442,1.377,1.825,1.825,0,0,0-.4248.99609q.61522,1.17188,1.05469,2.168.8496,2.02149,1.7871,3.95508t1.84571,3.89649a22.2101,22.2101,0,0,0,2.87109,4.42382,3.55013,3.55013,0,0,0,2.40235,1.46485,4.36408,4.36408,0,0,0,1.05468-.41016q.87891-.41016,2.31446-1.14258a4.74951,4.74951,0,0,1,1.3623-1.11328Q163.40625,45.83643,163.43555,45.62988Z"/><path class="cls-1" d="M198.62411,38.90625a3.9405,3.9405,0,0,1-.10254-.62988q-.01466-.249-.01465-.42481a6.2736,6.2736,0,0,1,.27832-1.97754,3.49355,3.49355,0,0,1,.835-1.3916,2.411,2.411,0,0,1,.70313-.4248q.58593-.27832,1.52343-.65918a3.56638,3.56638,0,0,0,1.084-.76172,1.60958,1.60958,0,0,0,.43945-1.05469,5.49578,5.49578,0,0,1,.42481-1.12793q.30761-.62988.74707-1.3916.11718-.20508.82031-2.417t1.99219-6.48926q.35156-1.31836.70312-2.27051t.58594-1.59668a16.934,16.934,0,0,1,1.8457-3.92578,16.125,16.125,0,0,0,1.084-1.52344v-.17578L210.46,8.93555l1.377-1.582,1.75781-.35157q.52734-.08788.9668-.99609A7.72593,7.72593,0,0,1,216.085,4.01367a3.88627,3.88627,0,0,0,.80567-.4541q.542-.36621,1.3916-1.04a8.389,8.389,0,0,1,1.25977-.86426,1.95373,1.95373,0,0,1,.82031-.27832,2.00936,2.00936,0,0,1,1.3623.38086,1.30859,1.30859,0,0,1,.42481,1.02539,5.35476,5.35476,0,0,1-.80567,2.24121,5.3548,5.3548,0,0,0-.80566,2.24121,1.0866,1.0866,0,0,0,.14648.58594.62168.62168,0,0,0,.38086.293l4.21875,2.28516q.35157.14647.62989,1.11328a16.07361,16.07361,0,0,1,.4541,2.666q.20508,1.40625.32226,2.32911a12.46524,12.46524,0,0,1,.11719,1.50879q-.23437,1.49414-.46875,3.04687.35157,1.96289.76172,4.16016-.20508,2.05077-.46875,4.21875a.75226.75226,0,0,0,.08789.36621.35381.35381,0,0,0,.26367.19043,1.38,1.38,0,0,1,.9082.30761,1.01954,1.01954,0,0,1,.293.77637,2.217,2.217,0,0,1-.19043,1.01074,1.38955,1.38955,0,0,1-.542.57129q-.46875.293-.73242.498a1.46113,1.46113,0,0,0-.35156.35156l.43945,2.168-.61523,5.00977q0,.61523-.10254,1.59668t-.33692,2.2998q-.35155.9375-.52734,1.56738a3.93692,3.93692,0,0,0-.17578.86426q.17578.58594.32226,1.25977-.20508.9375-.43945,1.88965-.23437.95067-.43945,1.86035a3.97558,3.97558,0,0,1-1.01074,1.80175,2.1312,2.1312,0,0,1-1.4795.57129.73326.73326,0,0,1-.68847-.3955,2.59526,2.59526,0,0,1-.21973-1.21582,6.24565,6.24565,0,0,1,.11719-1.01075,6.24633,6.24633,0,0,0,.11718-1.01074,4.22966,4.22966,0,0,0-.07324-.68848,4.35276,4.35276,0,0,1-.07324-.71777q0-.99609.20508-3.14941t.20508-3.23731l-.35157-1.23047q.0879-.67383.14649-1.377v-.43945a5.40154,5.40154,0,0,0-.0586-.82032l.52735-.96679-.43945-3.252-.26368-.11719a1.89128,1.89128,0,0,0-.61523.16113,6.988,6.988,0,0,0-.99609.5127,8.18219,8.18219,0,0,1-1.31836.293,20.67657,20.67657,0,0,1-2.373.20508q-.64454.293-1.20117.55664a17.72875,17.72875,0,0,0-2.02149.61524q-1.23046.43945-2.87109,1.05468a13.35455,13.35455,0,0,1-1.72852.73243,4.33786,4.33786,0,0,1-1.31836.26367.91764.91764,0,0,0-.70312.32226,2.33113,2.33113,0,0,0-.46875.90821,7.27937,7.27937,0,0,1-.49805,1.53808q-.41016.98145-1.084,2.47559-.1172.38087-.36621,1.18652t-.57129,2.00684q-.20508.46875-.4834,1.14258t-.62988,1.582a7.62586,7.62586,0,0,1-.08789,1.05469q-.0879.61522-.26368,1.40625c-.11718.332-.27832.751-.48339,1.25976q-.30762.76171-.74707,1.66992a1.85565,1.85565,0,0,1-.82032.82032,3.01068,3.01068,0,0,1-1.34765.26367,1.16279,1.16279,0,0,1-.95215-.41016,1.91048,1.91048,0,0,1-.33692-1.23047,11.54223,11.54223,0,0,1,.21973-2.10937,22.82568,22.82568,0,0,1,.65918-2.57813q.498-1.8457.84961-3.00293a8.0235,8.0235,0,0,0,.38086-1.74316,7.26623,7.26623,0,0,0,.32226-.86426q.20508-.62988.498-1.53808.293-.87891.58594-2.02149l-.17578-.26367-1.11328.17578a.75489.75489,0,0,1-.55664-.33691,1.32464,1.32464,0,0,1-.17579-.71778,2.29681,2.29681,0,0,1,.07325-.55664Q198.50692,39.3457,198.62411,38.90625Zm12.77343-6.44531a10.81805,10.81805,0,0,0,2.37305-.39551,10.844,10.844,0,0,1,2.40234-.39551,9.21369,9.21369,0,0,0,.9668.17578q.87891-.17577,1.72852-.3955t1.72851-.39551a1.04285,1.04285,0,0,0,.52735-.27832.72627.72627,0,0,0,.17578-.5127q-.05859-1.05468-.0586-1.43555a14.12872,14.12872,0,0,1,.08789-1.49414q.0879-.82031.26368-1.69921l-.43946-1.582.14649-1.43554q-.14649-.791-.23438-1.49414-.0293-.32227-.02929-.61524a3.59471,3.59471,0,0,1,.02929-.498q-.08788-.14649-.26367-.46875t-.38086-.67383q-.35155-.58595-.71777-1.12793t-.71778-1.09864a3.578,3.578,0,0,0-1.05468-.99609,2.30424,2.30424,0,0,0-1.17188-.32226q-.70312,0-1.43554,1.12793a12.96789,12.96789,0,0,0-1.377,3.41308,7.999,7.999,0,0,1-.57129,1.17188q-.48339.87889-1.3623,2.28515a13.13118,13.13118,0,0,1-.95215,3.31055,48.18828,48.18828,0,0,1-2.24121,4.6582.84239.84239,0,0,0-.19043.41016q-.01465.17579-.01465.41016a.47748.47748,0,0,0,.11719.35156.523.523,0,0,0,.38086.11718q.35155,0,1.14258-.05859T211.39754,32.46094Z"/><path class="cls-1" d="M267.24911,42.1582q.76171,1.72852,1.34765,3.22266a7.15872,7.15872,0,0,1-1.875,1.28906,15.87138,15.87138,0,0,1-2.69531,1.02539q-.43946.1172-1.01074.293t-1.333.35156q-.99609.0586-2.43164.20508t-3.36914.38086a43.10149,43.10149,0,0,1-4.84863,3.36914,14.1435,14.1435,0,0,1-3.58887,1.582l-.52734.46875a13.38938,13.38938,0,0,1-2.88575.86426q-1.71385.33545-4.02832.57129a2.21863,2.21863,0,0,1-.84961-.5127,9.7949,9.7949,0,0,1-1.02539-1.12793q.35157-.41161.87891-1.02539.52734-.61522,1.17187-1.43554a4.36372,4.36372,0,0,1,1.24512-1.25977,4.98843,4.98843,0,0,1,1.86035-.67383q1.14258-.26367,2.54883-.70312a6.01576,6.01576,0,0,1,.86426-.58594q.5127-.293,1.15723-.70312a10.31648,10.31648,0,0,0,1.66992-1.11329q.8789-.70311,1.93359-1.69921,1.40625-1.377,2.25586-2.21192t1.02539-1.04a5.43446,5.43446,0,0,1,.58594-.89355,4.47711,4.47711,0,0,1,.791-.74707q.46875-.84962,1.21582-2.13867t1.77247-2.959a5.87935,5.87935,0,0,0,.43945-.51269q.26367-.33691.61523-.71778A5.26,5.26,0,0,0,261.17,31.24512a22.26667,22.26667,0,0,0,.30761-3.999,7.9632,7.9632,0,0,0-.82031-3.36914,16.04556,16.04556,0,0,0-2.54883-3.7207,22.579,22.579,0,0,0-3.06152-2.915,19.32965,19.32965,0,0,0-3.2666-2.09473q-1.25978-.61522-2.37305-1.23046t-2.02148-1.11329q-.49806,1.75782-1.24512,4.84864T244.42684,25.166q-1.05468,5.00976-1.582,8.05664a29.88528,29.88528,0,0,0-.52734,4.10156q-.20508.87891-.35157,1.75781l-1.40625,6.94336a25.73465,25.73465,0,0,1-2.10937,3.53027q-.87891,1.15724-1.37695,1.15723-.23437,0-.43946-.39551a6.803,6.803,0,0,1-.43945-1.27441l.43945-1.99219a2.819,2.819,0,0,1-.20508-.61523q.20508-2.28516.38086-4.61426t.38086-4.67285q.17579-2.57812.52735-4.86328t.76172-4.21875L238.06942,26.25a11.99433,11.99433,0,0,0,.43945-1.64062,20.84342,20.84342,0,0,0,.32227-2.25586q.14647-1.61133.249-2.60743a6.75328,6.75328,0,0,1,.249-1.40625q.14649-.43944.30762-1.14257t.36621-1.69922a5.62977,5.62977,0,0,1,1.23047-1.49414A9.80061,9.80061,0,0,0,242.669,12.334a2.92774,2.92774,0,0,0,1.084-.293.58675.58675,0,0,0,.35157-.498q0-.26367-.39551-.43945a4.31033,4.31033,0,0,0-1.21582-.26368,5.382,5.382,0,0,1-.89356-.08789,4.38586,4.38586,0,0,1-1.04-.32226l-2.87109-1.40625a5.65849,5.65849,0,0,1-1.3916-.835,1.18324,1.18324,0,0,1-.4834-.86426q.20508-.70312.35156-1.40625-.23437-.70312-.39551-1.17188a2.41529,2.41529,0,0,1-.16113-.70312.71065.71065,0,0,1,.16113-.49805.54891.54891,0,0,1,.42481-.17578q.99609.17579,1.72851.32227l.70313-.23438q.35156-.11718.70312-.26367a7.9751,7.9751,0,0,1,1.52344.13184,8.80961,8.80961,0,0,1,1.02539.249q.46875.26367.9961.542t1.02539.4834q.43946-.05859,1.14258-.17578a.83958.83958,0,0,1,.38085.08789,5.73361,5.73361,0,0,0,1.01075.498,9.8582,9.8582,0,0,0,1.3623.41015q.84962.14649,1.4502.293a4.65034,4.65034,0,0,1,.95215.32227q3.72069,1.93359,6.51855,3.64746a32.84337,32.84337,0,0,1,4.61426,3.32519,16.47837,16.47837,0,0,1,4.26269,5.34668,13.62588,13.62588,0,0,1,1.36231,5.93262,22.46219,22.46219,0,0,1-2.915,10.44434,54.01692,54.01692,0,0,1-8.68652,11.61621,9.13323,9.13323,0,0,1,1.30371-.46875q.80566-.23437,1.86035-.58594,2.22656-.498,4.57031-1.05469a17.01183,17.01183,0,0,0,2.50488-.92285A5.60764,5.60764,0,0,0,267.24911,42.1582Z"/><path class="cls-1" d="M295.23934,18.39844q-.14649-.61524-.293-1.05469.17579-1.02538.38086-1.99219t.35156-1.99218a9.25441,9.25441,0,0,1,.86426-2.43165,2.43859,2.43859,0,0,1,1.09863-1.14257l2.25586-.9668q.38087-.14649,1.084-.35156a.60581.60581,0,0,1,.58594.35156,2.36074,2.36074,0,0,1,.17578,1.02539q0,.23438-.17578,1.40625t-.49805,3.28125a9.85063,9.85063,0,0,0-.13184.99609,7.86788,7.86788,0,0,1-.16113,1.05469,1.89042,1.89042,0,0,1-.249.835q-.249.48341-.62989,1.09863a1.08882,1.08882,0,0,1,.0293.26368,11.901,11.901,0,0,1-.76172,3.13476q-.9375,2.72462-2.92969,7.32422-1.64062,3.8379-2.90039,6.72363t-2.22656,4.76075q-.498.9668-1.12793,2.10937t-1.30371,2.373q.32226.73242.61524,1.34765a1.72665,1.72665,0,0,1-.14649.70313q-.498.55664-1.23047,1.43555t-1.72851,1.96289q-.67383.32226-1.43555.70312-.52734.70313-.87891,1.23047a7.33782,7.33782,0,0,1-1.24511.57129,3.39175,3.39175,0,0,1-1.06934.19043,2.21412,2.21412,0,0,1-1.64062-.835,2.541,2.541,0,0,1-.76172-1.71387,2.40974,2.40974,0,0,1,.80566-1.47949,5.516,5.516,0,0,0,.92285-1.15723l-.11719-.35156-.35156-.46875a8.1631,8.1631,0,0,0-.36621-1.59668,10.30982,10.30982,0,0,0-.60058-1.3916,11.79383,11.79383,0,0,1-1.12793-2.57813q-.48341-1.52343-.92286-3.48632-.17577-.90821-.26367-1.46485a6.05158,6.05158,0,0,1-.08789-.73242,4.26171,4.26171,0,0,1-.32226-.68848q-.17578-.4541-.38086-1.06933-.17579-1.14258-.43946-2.90039t-.52734-4.13086a3.14551,3.14551,0,0,0-.08789-.65918q-.08788-.3955-.26367-.95215a3.69975,3.69975,0,0,1-.293-.9082,4.64808,4.64808,0,0,1-.0586-.70313q.02931-1.02538.0293-1.99219a4.42639,4.42639,0,0,1-.14648-.84961v-.08789l.293-1.34765a4.58734,4.58734,0,0,1-.58594-1.20117,5.30007,5.30007,0,0,1-.23438-1.66993,2.07155,2.07155,0,0,1,.10254-.65918,4.58,4.58,0,0,1,.249-.60058,8.86358,8.86358,0,0,1-.27832-1.14258,7.13123,7.13123,0,0,1-.10254-1.23047,3.686,3.686,0,0,1-.498-1.05469,1.43927,1.43927,0,0,1-.11719-.52734.946.946,0,0,1,.0586-.35156l.20507-1.40625q-.14647-.52734-.26367-.87891.41016-2.10937.68848-3.38379a12.35961,12.35961,0,0,1,.4248-1.626,4.8616,4.8616,0,0,1,1.49414-1.97754,5.74557,5.74557,0,0,1,2.40235-1.04,10.1257,10.1257,0,0,1,.86426-.55664A1.41866,1.41866,0,0,1,279.94637.293a.97577.97577,0,0,1,.71778.36621,2.67,2.67,0,0,1,.542,1.06934,6.25554,6.25554,0,0,1,.23437,1.14257V3.89648q-.14648,1.31836-.27832,3.00293t-.21972,3.76465a5.23348,5.23348,0,0,1-.30762.77637,2.23493,2.23493,0,0,0-.249.86426,4.24036,4.24036,0,0,0,.249,1.12793,4.24069,4.24069,0,0,1,.249,1.12793,7.05746,7.05746,0,0,1-.07324.76172q-.07324.55664-.21973,2.13867.14649.8203.35157,1.69922a12.41885,12.41885,0,0,1-.10254,1.25976,12.47226,12.47226,0,0,0-.10254,1.31836.67381.67381,0,0,0,.07324.35156,5.77544,5.77544,0,0,1,.27832.9668q.02929.791.16113,1.78711t.30762,2.373q.17578,1.20117.43945,2.98828t.49805,4.13086l.0293,1.17187a1.489,1.489,0,0,0,.14648.57129,2.89146,2.89146,0,0,0,.43945.68848q.20508.96679.45411,2.05078t.48339,2.25586a1.15577,1.15577,0,0,0,.23438.58594.52693.52693,0,0,0,.41016.20507,7.54076,7.54076,0,0,0,1.23046-1.582,9.53961,9.53961,0,0,0,.80567-1.4209q.5127-1.04,1.21582-2.79785a10.51473,10.51473,0,0,1,.52734-1.084q.35157-.64453.82032-1.43555a23.14232,23.14232,0,0,0,1.25976-2.56347q.82032-1.86036,1.96289-4.93653.9668-2.51954,1.61133-4.27734t.9375-2.72461Z"/><path class="cls-1" d="M333.45418,42.1582l1.31836,3.22266q-.38085.35155-.92285.76172a14.3992,14.3992,0,0,1-1.27441.84961q-.76171.26367-1.78711.71777t-2.373,1.04a17.69225,17.69225,0,0,1-1.66992.95215,2.58522,2.58522,0,0,1-.9082.30762,6.67989,6.67989,0,0,0-1.65528.3955q-1.21581.39552-3.17871,1.15723-1.05468.3794-2.24121.791-1.18651.41015-2.44629.73242l-2.168-.46875-1.34765.58593q-.67383,0-1.34766-.01464c-.44922-.01075-.88867-.03418-1.31836-.07325a3.94261,3.94261,0,0,1-1.53808-.27832.7803.7803,0,0,1-.5127-.71777l.23438-1.31836-.23438-.26367a2.83164,2.83164,0,0,1-1.582-.30762q-.41016-.30762-.41016-1.47949,0-.52734.0586-1.75781t.14648-3.19336a2.55541,2.55541,0,0,1,.23438-.73242,2.4283,2.4283,0,0,0,.23437-.82032,2.54744,2.54744,0,0,1-.21972-.55664,1.825,1.825,0,0,1-.04395-.38086q.08788-1.377.30762-3.38379t.57129-4.73144a29.42023,29.42023,0,0,0,.70312-3.7207q-.05859-1.55274-.11719-3.16407,1.28907-5.85937,2.666-11.748a5.98465,5.98465,0,0,1,.791-2.00684,12.64506,12.64506,0,0,1,1.377-1.83105,2.21459,2.21459,0,0,0,.46875-.38086q.17579-.32227.4541-.791t.65918-1.084q.20508-.14649.68848-.42481t1.27441-.77637q.35156-.26367.82031-.65917t1.05469-.92286A22.63033,22.63033,0,0,0,320.71,3.999a5.80494,5.80494,0,0,1,2.8418-1.12793q.82032-.02929,1.626-.07324T326.7159,2.666a8.43734,8.43734,0,0,1,1.23047-.17579,6.02284,6.02284,0,0,0,.61524-.13183,1.86341,1.86341,0,0,1,.498-.07324,3.86363,3.86363,0,0,1,.57129.05859q.36621.05859,1.01074.14648.46875.02931.82032.0293t.67383-.0293a4.30887,4.30887,0,0,1,2.08007,1.24512,2.89512,2.89512,0,0,1,.67383,1.919,10.03586,10.03586,0,0,1-.4834,3.60351,1.58589,1.58589,0,0,1-1.47949,1.17188,2.957,2.957,0,0,1-1.77246-.791q-.98145-.791-5.31738-.791-1.78711.35155-3.54492.70312a1.34811,1.34811,0,0,1-.39551.43945,1.71061,1.71061,0,0,1-.39551.20508l-1.23047-.46875a3.407,3.407,0,0,0-1.28906,1.17188,14.3955,14.3955,0,0,0-1.46485,2.60742,3.124,3.124,0,0,0-.26367.87891,7.57164,7.57164,0,0,0-.08789,1.23046q-.64454,2.51954-1.25976,4.89258-.61524,2.51954-.98145,3.82324t-.4248,1.56739q-.11719.35155-.19043.67383a2.89985,2.89985,0,0,0-.07325.64453,1.17729,1.17729,0,0,0,.17579.68847.60288.60288,0,0,0,.52734.249q.32226,0,1.53809-1.15723a5.22569,5.22569,0,0,1,1.80175-1.30371q.76173-.20508,1.50879-.4541t1.56739-.60059q.32226-.08789,1.66992-.26367t3.77929-.43945l.9668.293,1.875-.35157.99609.43946a4.06606,4.06606,0,0,1,.64454.86425,8.039,8.039,0,0,1,.52734,1.12793,8.64542,8.64542,0,0,1-.4541,3.19336,1.47222,1.47222,0,0,1-1.36231,1.084l-1.93359-.76172q-2.40234.23438-4.73145.46875t-4.76074.43945a9.98517,9.98517,0,0,0-4.541,1.91895,4.934,4.934,0,0,0-1.75782,3.53027,10.89641,10.89641,0,0,1-.23437,1.3916q-.20508.95216-.498,2.3584l.23438,1.05469q-.293,1.52343-.46875,2.85644a18.45657,18.45657,0,0,0-.17578,2.3877.811.811,0,0,0,.11718.49805q.05861.11718.14649.11718a.22483.22483,0,0,0,.08789-.02929q1.66992-.11719,2.69531-.20508.73242-.0293,1.14258-.0293h.293q.9082.05859,1.875.14649l2.19726-.17579a15.50574,15.50574,0,0,0,1.53809-.57128,5.71793,5.71793,0,0,1,2.124-.4834,9.96987,9.96987,0,0,0,2.06543-.21973,13.6728,13.6728,0,0,0,1.97754-.57129q.9668-.35156,1.88965-.71777t1.88965-.71778a4.63239,4.63239,0,0,0,.92285-.38086Q332.66317,42.59766,333.45418,42.1582Z"/><path class="cls-1" d="M344.54012,13.71094l-.58594-2.28516q.23438-.70312.43946-1.4209t.38086-1.4209a1.47159,1.47159,0,0,1,.71777-.76171,2.9921,2.9921,0,0,1,1.36231-.26368,4.8137,4.8137,0,0,0,.96679-.14648,4.79979,4.79979,0,0,1,.9375-.14649,1.47027,1.47027,0,0,1,.82031.49805,2.30309,2.30309,0,0,0,.76172.55664,4.55069,4.55069,0,0,0,.60059-.58593q.36621-.41016.89355-1.11329a6.43526,6.43526,0,0,1,.89356-.9375,2.25914,2.25914,0,0,1,.89355-.46875q.58595.26367.9961.43946a.84438.84438,0,0,1,.32226.32226,1.13759,1.13759,0,0,1,.08789.49805,3.38827,3.38827,0,0,1-.17578.74707q-.17579.57129-.52734,1.56738-.38087,1.0547-.58594,1.75782t-.293,1.084a11.822,11.822,0,0,0-.82031,1.46484,2.91931,2.91931,0,0,0-.293,1.20118,7.95173,7.95173,0,0,0,.42481,2.09472q.4248,1.39161,1.21582,3.47168,1.14256,2.8125,2.28515,5.85938,1.05469,3.39843,2.22656,6.5332t2.43165,6.03516a45.87036,45.87036,0,0,0,2.13867,4.49707q.8496,1.47948,1.25976,1.47949a.543.543,0,0,0,.5127-.41016,3.78555,3.78555,0,0,0,.16113-1.28906,6.072,6.072,0,0,1,.08789-.9082,9.19268,9.19268,0,0,1,.293-1.23047q.32226-.9375.61523-2.13867.35157-1.84571.64454-3.208t.498-2.3584a23.42008,23.42008,0,0,0,.32227-2.666q.17579-2.05077.35156-5.50781a5.99135,5.99135,0,0,1,.11719-.99609q.11718-.64454.23437-1.43555.14649-.82031.21973-1.3916a8.239,8.239,0,0,0,.07324-1.04,24.03857,24.03857,0,0,0-.17578-2.417q-.17579-1.59669-.17578-2.3877.52734-2.22655.9668-4.33593.38085-1.81641.73242-3.03223t.61523-1.86035A8.802,8.802,0,0,1,371.77157,3.457a7.15847,7.15847,0,0,1,1.80176-1.52344h.26367a.6352.6352,0,0,1,.4834.14649.63888.63888,0,0,1,.13183.43945A9.15047,9.15047,0,0,1,374.13,3.66211q.11718.61524.20507,1.31836a11.51344,11.51344,0,0,1-.23437,1.49414,8.48111,8.48111,0,0,0-.14649,1.17187q-.05859.791-.05859,1.9043,0,.43946-.11719,1.83106t-.38086,3.706q-.20506,3.31055-.51269,6.57715t-.62988,6.51855q-.26369,3.95508-.791,7.207a50.28456,50.28456,0,0,1-1.25977,5.80079,26.14818,26.14818,0,0,1-.65917,3.457q-.48341,1.90429-1.21583,4.10156l-1.084,1.75781a12.71494,12.71494,0,0,1-2.22656.89356,17.72076,17.72076,0,0,1-2.34375.74707q-.52734,0-1.582-1.377a28.27035,28.27035,0,0,1-2.49024-4.21875q-1.377-2.57812-2.18261-4.248a16.74783,16.74783,0,0,1-1.04-2.51953q-.05861-.293-.20508-.791t-.32227-1.14258q-.70312-1.52343-1.77246-3.80859t-2.47558-5.41992a8.83349,8.83349,0,0,0-.60059-1.50879,15.15835,15.15835,0,0,0-.89356-1.50879l-.26367.08789q-.23437.70313-.4834,1.75781T347.79208,30a15.20278,15.20278,0,0,1-.73243,1.66992q-.52734,2.05078-1.20117,4.43848T344.42293,41.25q-.20506.9082-.4248,1.88965t-.4834,2.03613l-.64453,1.17188q-.14649,1.05468-.32227,2.05078-.23437.8203-.60058,1.96289t-.89356,2.72461a2.1399,2.1399,0,0,1-.51269,1.20117,1.5496,1.5496,0,0,1-1.09863.43945,1.20256,1.20256,0,0,1-.293.30762,1.90438,1.90438,0,0,1-.70313.27832h-.11719q-.26367,0-.41015-.35156a3.63634,3.63634,0,0,1-.17578-1.28906,10.5314,10.5314,0,0,1,.17578-1.55274q.17579-1.05468.52734-2.666.38087-1.81639.61524-2.85644t.293-1.30371q.14647-.84961.32226-2.22656t.38086-3.16407q.08788-.46875.23438-1.14257t.41015-1.61133q.17579-.70312.70313-3.8086t1.377-8.67187Q343.69052,19.21876,344.54012,13.71094Z"/><path class="cls-1" d="M384.54208,2.92969a18.87831,18.87831,0,0,1,3.16406-.64453,31.72768,31.72768,0,0,1,3.77929-.20508,8.25113,8.25113,0,0,1,1.14258.11719,8.38383,8.38383,0,0,0,1.20117.11718q.67383.1172,1.0254.20508.38085.11719,1.05468.26367l.9961-.293a1.64811,1.64811,0,0,1,.67382.26368q.38087.23438.90821.52734a7.81706,7.81706,0,0,1,.791-.43945,1.06846,1.06846,0,0,1,.86426.41015,2.36109,2.36109,0,0,1,.4541,1.14258v1.084a8.29633,8.29633,0,0,1-.08789,1.17187v.17578a4.9495,4.9495,0,0,0,.0586.67383q.05859.61524.05859.9375a.76117.76117,0,0,1-.17578.55664.63352.63352,0,0,1-.46875.17578,15.7502,15.7502,0,0,1-2.62207-.21972,15.52257,15.52257,0,0,1-2.62207-.68848q-1.11329.20508-1.96289.32226a3.05492,3.05492,0,0,0-.98145.20508q-.30762.14649-.30762.35156a5.69727,5.69727,0,0,0,.38086.52735,2.561,2.561,0,0,0,.58594.52734,2.10283,2.10283,0,0,1,.57129.76172,12.98425,12.98425,0,0,1,.65918,1.55274,3.774,3.774,0,0,1,.20508.73242,4.10119,4.10119,0,0,1,.05859.67383,14.64061,14.64061,0,0,1-.14648,1.8457,16.74633,16.74633,0,0,1-.32227,1.8164q-.32226,1.377-.498,2.27051t-.26368,1.36231a4.64082,4.64082,0,0,0-.11718.835q-.02931.48339-.0586,1.12793a5.60372,5.60372,0,0,1-.27832,1.31836q-.249.791-.51269,1.8164a6.30146,6.30146,0,0,1-.10254,1.04q-.10254.60059-.27832,1.36231a5.73062,5.73062,0,0,1-.32227,1.05468,12.17319,12.17319,0,0,0-.43945,1.34766q.05859.52734.08789,1.084-.11719.99609-.26367,2.05078-.20508,1.49414-.42481,3.04687t-.39551,2.98828q-.20506.43945-.43945.9668a4.986,4.986,0,0,0,.08789.74707,5.15844,5.15844,0,0,1,.08789.835,6.42116,6.42116,0,0,1-.14648,1.12793,6.39435,6.39435,0,0,0-.14649,1.09863q0,.67383-.02929,2.08008t-.0293,2.10938q.17578.58593.293,1.14257a3.741,3.741,0,0,1-.21973.80567,1.29437,1.29437,0,0,1-.33691.4834,9.91664,9.91664,0,0,1-1.14258.61523q-.35156.35157-.58594.57129a.65578.65578,0,0,1-.41015.21973,1.99925,1.99925,0,0,1-1.084-.21973.66527.66527,0,0,1-.32226-.57129,21.51989,21.51989,0,0,1,.23437-2.25586,2.93773,2.93773,0,0,1-.14648-.41015,6.80023,6.80023,0,0,0-.26367-.70313q-.17578-2.7246-.46875-5.625.11718-2.05079.11718-4.16016,0-.99609.08789-2.49023t.32227-3.457q.26367-1.96288.36621-3.44238t.10254-2.44629a8.124,8.124,0,0,1,.08789-1.05469q.08788-.64454.20508-1.61133.08788-.791.19043-1.45019a7.79406,7.79406,0,0,0,.10254-1.18653q0-.26367-.0293-.58593t-.05859-.55664q.35156-.87891.52734-1.43555a3.21156,3.21156,0,0,0,.17578-.73242q-.14649-.43945-.32226-.90821a10.68822,10.68822,0,0,0,.4541-1.77246q.249-1.27441.542-3.35449V11.63086q0-.58595.0293-1.43555l-.20508-.64453q-.14649-.05859-.5127-.16113a8.1129,8.1129,0,0,0-.95215-.19043l-.43945.32226q-.46875.11719-.9375.21973t-.99609.249q-3.66211,1.0254-7.23633,1.99219a.56986.56986,0,0,1-.46875-.21972.98739.98739,0,0,1-.17578-.62989,2.81275,2.81275,0,0,1,.17578-.73242,12.31419,12.31419,0,0,1,.58594-1.37695q.05859-1.23048.16113-2.03614a6.16156,6.16156,0,0,1,.249-1.21582,3.33881,3.33881,0,0,1,.86426-1.31836,3.70822,3.70822,0,0,1,1.36231-.791A16.86266,16.86266,0,0,1,381.964,2.959a12.78964,12.78964,0,0,1,1.46484-.08789A10.08893,10.08893,0,0,1,384.54208,2.92969Z"/><path class="cls-1" d="M405.88192,36.09375a12.033,12.033,0,0,0-.35156-2.31445,12.06684,12.06684,0,0,1-.35157-2.373q0-.46875.08789-1.43555t.0879-1.43554q0-1.28907-.16114-3.91114t-.16113-3.91113q0-2.19726.249-5.63965t.68848-8.07129a6.77947,6.77947,0,0,1,.77637-2.57812,1.64256,1.64256,0,0,1,1.45019-.87891.7947.7947,0,0,1,.61524.42481,7.1847,7.1847,0,0,1,.64453,1.27441q.82031.76172,1.61133,1.40625a3.46,3.46,0,0,1,.96679,1.377,5.36661,5.36661,0,0,1,.32227,1.96289,13.71221,13.71221,0,0,1-.43945,2.90039,13.60911,13.60911,0,0,0-.43946,2.8125,30.15921,30.15921,0,0,1-.13183,3.09083,9.03279,9.03279,0,0,1-.36621,1.91894l-.38086,1.11328.26367,2.373q-.0879,1.99218-.14649,4.16016a28.70424,28.70424,0,0,0,.35157,4.42382,42.83265,42.83265,0,0,0,.96679,4.541,13.75889,13.75889,0,0,0,2.05078,4.67285,3.423,3.423,0,0,0,2.72461,1.56738,2.87888,2.87888,0,0,0,1.4209-.36621,4.02812,4.02812,0,0,0,1.24512-1.15722q.46875-.61524.89355-1.28907t.835-1.31836a11.64366,11.64366,0,0,0,.9961-1.42089q.52734-.86427,1.14258-2.03614.61523-2.10937,1.34765-4.26269t1.46485-4.32129l.4541-1.81641q.27832-1.11329.57129-2.54883a32.69627,32.69627,0,0,0,1.31836-4.89257Q429.14363,15,429.964,10.54688q.26367-.70314.67383-1.78711t.9375-2.54883q.14648-.52734.52734-1.64063t1.084-2.84179A2.33823,2.33823,0,0,1,434.212.43945,3.47559,3.47559,0,0,1,436.0284,0q.67383,0,.98145.86426a8.33987,8.33987,0,0,1,.30762,2.62207,49.35827,49.35827,0,0,1-.835,8.17383,109.80756,109.80756,0,0,1-2.59278,11.04492,14.01141,14.01141,0,0,1-.32226,1.4209q-.23437.86426-.55664,1.94824-.02931.67383-.14649,1.53808t-.35156,1.97754a39.26543,39.26543,0,0,0-.92285,4.2334q-.36621,2.24121-.57129,4.67285a6.29756,6.29756,0,0,1-.13184,1.05469q-.13184.70313-.33691,1.69922a15.51364,15.51364,0,0,0-.27832,1.74316q-.07325.77637-.07324,1.4502.11718.9375.20507,1.78711a7.77781,7.77781,0,0,1,.70313.835,1.05744,1.05744,0,0,1,.23437.542,6.67948,6.67948,0,0,1-.73242,1.34766,12.37983,12.37983,0,0,1-1.31836,1.582,7.2321,7.2321,0,0,1-1.65527,1.45019,2.92444,2.92444,0,0,1-1.47949.4834,1.62223,1.62223,0,0,1-1.21582-.791,2.51665,2.51665,0,0,1-.60059-1.49414v-.26367a4.12779,4.12779,0,0,0,.23438-.82032.87277.87277,0,0,0-.0879-.36621,2.18876,2.18876,0,0,1-.14648-.51269q.05859-.17578.20508-.52735t.293-.791a3.75491,3.75491,0,0,1-.17578-.42481,5.43246,5.43246,0,0,0-.26368-.60058,2.51164,2.51164,0,0,0,.14649-.5127,5.96762,5.96762,0,0,1,.20508-.74707,5.08231,5.08231,0,0,0-.0586-.70312q.02929-.26369.10254-.73243t.16113-1.17187q.14649-.58594.23438-.9961a3.2372,3.2372,0,0,0,.08789-.61523,1.18028,1.18028,0,0,0-.08789-.46875.45451.45451,0,0,0-.23438-.26367,1.50544,1.50544,0,0,0-.57128.51269,9.9713,9.9713,0,0,0-.835,1.27442q-.55663.9375-.95214,1.52344t-.542.791l-.14648.498q-.9375,1.28905-1.68457,2.15332a16.547,16.547,0,0,1-1.12793,1.21582,8.77223,8.77223,0,0,1-1.59668,1.084,10.35249,10.35249,0,0,1-2.24121.84961,5.55719,5.55719,0,0,0-1.23047.35157,7.21106,7.21106,0,0,1-2.34375-.35157,3.34926,3.34926,0,0,1-1.55273-.99609,16.83807,16.83807,0,0,1-3.19336-5.58106A21.27227,21.27227,0,0,1,405.88192,36.09375Z"/><path class="cls-1" d="M452.47567,32.90039A3.39871,3.39871,0,0,0,453.48641,34.79a27.52867,27.52867,0,0,0,3.00293,2.88574q1.28907,1.11328,2.68067,2.13867t2.76855,2.08008q.58593.498,1.53809,1.28906t2.21191,1.84571q.9375.70313,1.93359,1.40625t2.168,1.40625q.76171.61523,1.71387,1.30371.95216.687,2.18262,1.50879a2.6624,2.6624,0,0,1,1.084,1.52343,10.70675,10.70675,0,0,1,.46875,2.8711l-.32226.9082-.35157.17578a2.28489,2.28489,0,0,1-.9375-.293,14.33343,14.33343,0,0,1-1.46484-.8789q-.17578-.0879-1.59668-.76172-1.42091-.6753-4.08691-1.9043a16.98382,16.98382,0,0,1-2.72461-1.40625,18.37648,18.37648,0,0,1-2.22657-1.66992,17.88362,17.88362,0,0,0-1.53808-1.15723q-.92286-.62988-2.21192-1.3623-1.28905-.76171-2.24121-1.4209t-1.50879-1.12793q-1.90429-1.55274-3.09082-2.3584a3.88587,3.88587,0,0,0-1.65527-.80566,1.95182,1.95182,0,0,0-.38086,1.02539q-.43946,1.64063-.9082,4.16016t-1.02539,5.85937a1.45713,1.45713,0,0,1-.21973.87891.74245.74245,0,0,1-.62988.293,2.93811,2.93811,0,0,1-2.08008-.65917,2.62736,2.62736,0,0,1-.70313-2.00684,31.66761,31.66761,0,0,1,.23438-3.75,35.15834,35.15834,0,0,1,.76172-4.13086q.17579-.9668.26367-1.71387a11.95737,11.95737,0,0,0,.08789-1.3916,3.49419,3.49419,0,0,0-1.3916-2.76855q-1.39161-1.15723-1.3916-1.65528a3.581,3.581,0,0,1,.23437-1.3623,2.24711,2.24711,0,0,1,.67383-.92285q1.17188-.73242,2.13867-1.40625a.73345.73345,0,0,0,.35156-.4834,3.81685,3.81685,0,0,0,.0879-.92285V28.50586q.08788-3.13476.17578-6.50391v-.76172q0-.52734-.08789-1.377-.02931-.43945-.0293-.82031v-.38086q.0293-.52734.0293-.9668-.20508-.70312-.36621-1.21582a3.27117,3.27117,0,0,1-.16114-.98144q0-.41016.07324-1.30371t.07325-1.30372q0-.46875-.08789-1.34765t-.08789-1.34766a5.28381,5.28381,0,0,1,.58593-2.417,8.60071,8.60071,0,0,1,1.78711-2.2998,9.1924,9.1924,0,0,1,2.3584-1.4795,6.31747,6.31747,0,0,1,2.47559-.51269q.61523,0,1.78711.08789t1.8457.08789a11.71733,11.71733,0,0,1,2.49023.76172q.82032.08789,1.4502.20508a5.9178,5.9178,0,0,1,1.01074.26367q.87891.41016,1.37695.64453a3.00687,3.00687,0,0,0,.70313.26367q.58593.20508,1.02539.35156a2.84222,2.84222,0,0,1,.73242.35157q.43946.20507,1.05469.48339t1.40625.62989A15.65963,15.65963,0,0,1,469.38,9.11133a20.67561,20.67561,0,0,1,2.08007,1.8164,9.85871,9.85871,0,0,1,1.69922,2.47559,5.76788,5.76788,0,0,1,.55664,2.417q0,.35157-.05859.9961t-.17578,1.46484a4.39077,4.39077,0,0,1-1.06934,2.19727,17.48515,17.48515,0,0,1-2.73926,2.57812,31.39448,31.39448,0,0,1-2.959,2.06543,11.46876,11.46876,0,0,1-2.51953,1.18652,2.78391,2.78391,0,0,0-.70313.58594,7.611,7.611,0,0,1-1.47949.98145q-1.12793.62988-3.06152,1.59668-3.51562,1.69921-4.99512,2.25586T452.47567,32.90039ZM448.78426,15.9668q.67383-.498,1.27442-.9668a2.42585,2.42585,0,0,1,1.53808-.46875q.43945,0,1.05469.92285a2.96012,2.96012,0,0,1,.61523,1.3916,7.94409,7.94409,0,0,1-.17578,1.11328q-.17577.87891-.58593,2.40235-.791,3.39843-.89356,4.26269t-.4541,2.68067a12.11,12.11,0,0,0-.293,1.20117.75094.75094,0,0,0,.11719.46875.42313.42313,0,0,0,.35156.14648q6.97266-3.51562,7.23633-3.66211.26367-.08788.58594-.20507a5.82776,5.82776,0,0,0,.61523-.26368l.52734-.67382q2.02149-1.28907,4.21875-2.75391a9.08268,9.08268,0,0,0,2.02149-2.08008,3.71127,3.71127,0,0,0,.67383-2.05078,3.49733,3.49733,0,0,0-1.50879-2.56348,15.78246,15.78246,0,0,0-4.52637-2.417,31.11991,31.11991,0,0,0-4.6875-1.49414,17.83036,17.83036,0,0,0-3.83789-.46875,5.98382,5.98382,0,0,0-3.39844.791,2.63649,2.63649,0,0,0-1.14258,2.31445,7.05271,7.05271,0,0,0,.17579,1.81641q.14647.55664.43945.55664Z"/><path class="cls-1" d="M505.95418,42.1582l1.31836,3.22266q-.38085.35155-.92285.76172a14.3992,14.3992,0,0,1-1.27441.84961q-.76171.26367-1.78711.71777t-2.373,1.04a17.69225,17.69225,0,0,1-1.66992.95215,2.58522,2.58522,0,0,1-.9082.30762,6.67989,6.67989,0,0,0-1.65528.3955q-1.21581.39552-3.17871,1.15723-1.05468.3794-2.24121.791-1.18651.41015-2.44629.73242l-2.168-.46875-1.34765.58593q-.67383,0-1.34766-.01464c-.44922-.01075-.88867-.03418-1.31836-.07325a3.94261,3.94261,0,0,1-1.53808-.27832.7803.7803,0,0,1-.5127-.71777l.23438-1.31836-.23438-.26367a2.83164,2.83164,0,0,1-1.582-.30762q-.41016-.30762-.41016-1.47949,0-.52734.0586-1.75781t.14648-3.19336a2.55541,2.55541,0,0,1,.23438-.73242,2.4283,2.4283,0,0,0,.23437-.82032,2.54744,2.54744,0,0,1-.21972-.55664,1.825,1.825,0,0,1-.04395-.38086q.08788-1.377.30762-3.38379t.57129-4.73144a29.42023,29.42023,0,0,0,.70312-3.7207q-.05859-1.55274-.11719-3.16407,1.28907-5.85937,2.666-11.748a5.98465,5.98465,0,0,1,.791-2.00684,12.64506,12.64506,0,0,1,1.377-1.83105,2.21459,2.21459,0,0,0,.46875-.38086q.17579-.32227.4541-.791t.65918-1.084q.20508-.14649.68848-.42481t1.27441-.77637q.35156-.26367.82031-.65917t1.05469-.92286A22.63033,22.63033,0,0,0,493.21,3.999a5.80494,5.80494,0,0,1,2.8418-1.12793q.82032-.02929,1.626-.07324T499.2159,2.666a8.43734,8.43734,0,0,1,1.23047-.17579,6.02284,6.02284,0,0,0,.61524-.13183,1.86341,1.86341,0,0,1,.498-.07324,3.86363,3.86363,0,0,1,.57129.05859q.36621.05859,1.01074.14648.46875.02931.82032.0293t.67383-.0293a4.30887,4.30887,0,0,1,2.08007,1.24512,2.89512,2.89512,0,0,1,.67383,1.919,10.03586,10.03586,0,0,1-.4834,3.60351,1.58589,1.58589,0,0,1-1.47949,1.17188,2.957,2.957,0,0,1-1.77246-.791q-.98145-.791-5.31738-.791-1.78711.35155-3.54492.70312a1.34811,1.34811,0,0,1-.39551.43945,1.71061,1.71061,0,0,1-.39551.20508l-1.23047-.46875a3.407,3.407,0,0,0-1.28906,1.17188,14.3955,14.3955,0,0,0-1.46485,2.60742,3.124,3.124,0,0,0-.26367.87891,7.57164,7.57164,0,0,0-.08789,1.23046q-.64454,2.51954-1.25976,4.89258-.61524,2.51954-.98145,3.82324t-.4248,1.56739q-.11719.35155-.19043.67383a2.89985,2.89985,0,0,0-.07325.64453,1.17729,1.17729,0,0,0,.17579.68847.60288.60288,0,0,0,.52734.249q.32226,0,1.53809-1.15723a5.22569,5.22569,0,0,1,1.80175-1.30371q.76173-.20508,1.50879-.4541t1.56739-.60059q.32226-.08789,1.66992-.26367t3.77929-.43945l.9668.293,1.875-.35157.99609.43946a4.06606,4.06606,0,0,1,.64454.86425,8.039,8.039,0,0,1,.52734,1.12793,8.64542,8.64542,0,0,1-.4541,3.19336,1.47222,1.47222,0,0,1-1.36231,1.084l-1.93359-.76172q-2.40234.23438-4.73145.46875t-4.76074.43945a9.98517,9.98517,0,0,0-4.541,1.91895,4.934,4.934,0,0,0-1.75782,3.53027,10.89641,10.89641,0,0,1-.23437,1.3916q-.20508.95216-.498,2.3584l.23438,1.05469q-.293,1.52343-.46875,2.85644a18.45657,18.45657,0,0,0-.17578,2.3877.811.811,0,0,0,.11718.49805q.05861.11718.14649.11718a.22483.22483,0,0,0,.08789-.02929q1.66992-.11719,2.69531-.20508.73242-.0293,1.14258-.0293h.293q.9082.05859,1.875.14649l2.19726-.17579a15.50574,15.50574,0,0,0,1.53809-.57128,5.71793,5.71793,0,0,1,2.124-.4834,9.96987,9.96987,0,0,0,2.06543-.21973,13.6728,13.6728,0,0,0,1.97754-.57129q.9668-.35156,1.88965-.71777t1.88965-.71778a4.63239,4.63239,0,0,0,.92285-.38086Q505.16317,42.59766,505.95418,42.1582Z"/></g></g></svg>